<svg id="filter-edit" xmlns="http://www.w3.org/2000/svg" width="24" height="24" viewBox="0 0 24 24">
  <g id="filter-edit-2" data-name="filter-edit" transform="translate(-556 -700)">
    <path id="Vector" d="M8.38,21.48a2.918,2.918,0,0,1-1.4-.36,2.72,2.72,0,0,1-1.42-2.4V13.37a3.2,3.2,0,0,0-.64-1.65L1.12,7.73A4.077,4.077,0,0,1,0,5.19V2.87A2.793,2.793,0,0,1,2.77,0H16.11a2.77,2.77,0,0,1,2.77,2.77V4.99a4.51,4.51,0,0,1-1.23,2.85.75.75,0,0,1-1.06-1.06,3.065,3.065,0,0,0,.79-1.79V2.77A1.272,1.272,0,0,0,16.11,1.5H2.77A1.309,1.309,0,0,0,1.5,2.87V5.19a2.649,2.649,0,0,0,.69,1.49l3.85,4.05a4.615,4.615,0,0,1,1.01,2.64v5.35a1.22,1.22,0,0,0,.65,1.09,1.336,1.336,0,0,0,1.34-.01l1.4-.9a.756.756,0,0,1,.82,1.27l-1.41.91A2.952,2.952,0,0,1,8.38,21.48Z" transform="translate(558.55 701.27)" fill="#131414"/>
    <path id="Vector-2" data-name="Vector" d="M1.4,8.318a1.406,1.406,0,0,1-1-.4,1.423,1.423,0,0,1-.38-1.23l.19-1.35a1.95,1.95,0,0,1,.51-1.01L4.258.788a2.382,2.382,0,0,1,1.46-.78,2.264,2.264,0,0,1,1.82.78,2.252,2.252,0,0,1,.78,1.82,2.46,2.46,0,0,1-.78,1.46L4,7.608a1.98,1.98,0,0,1-1.02.51l-1.35.19A1.77,1.77,0,0,1,1.4,8.318Zm4.49-6.83h-.03a.987.987,0,0,0-.54.35l-3.54,3.54a.38.38,0,0,0-.08.17L1.518,6.8l1.25-.18a.556.556,0,0,0,.17-.09l3.54-3.54a1.049,1.049,0,0,0,.35-.54c.02-.2-.18-.44-.35-.61A1.02,1.02,0,0,0,5.888,1.488Z" transform="translate(568.292 710.572)" fill="#131414"/>
    <path id="Vector-3" data-name="Vector" d="M2.967,3.727a.644.644,0,0,1-.2-.03A3.977,3.977,0,0,1,.027.957a.76.76,0,0,1,.52-.93.745.745,0,0,1,.92.52,2.466,2.466,0,0,0,1.7,1.7.755.755,0,0,1,.52.93A.736.736,0,0,1,2.967,3.727Z" transform="translate(571.822 711.633)" fill="#131414"/>
    <path id="Vector-4" data-name="Vector" d="M0,0H24V24H0Z" transform="translate(580 724) rotate(180)" fill="none" opacity="0"/>
  </g>
</svg>
