<svg xmlns="http://www.w3.org/2000/svg" width="22.834" height="16.946" viewBox="0 0 22.834 16.946">
  <path id="mobikwik-logo_2_" data-name="mobikwik-logo (2)" d="M21.237,20.036A.842.842,0,1,1,22.1,19.2.849.849,0,0,1,21.237,20.036Zm1.581-1.294c-.164-1.5-1.71-.9-1.71-.9-1.1.415-1.348.238-1.348.238l.205-2.922c-.115-1.369-1.943-.895-1.943-.895.989.449.787.974.787.974s-1.076,10.765-1.2,11.457-1.076.4-1.076.4v1.179h1.241c.91,0,.992-1.22.992-1.22l.607-5.716a16.541,16.541,0,0,0,1.71-.377c2.035-.679,1.735-2.225,1.735-2.225Zm-1.1.454a.478.478,0,0,1-.956,0,.479.479,0,0,1,.956,0ZM13.012,16a.141.141,0,0,1,.015-.021,1.074,1.074,0,0,1,.861-.661,1.1,1.1,0,0,0-.953.579l-2.924,5.121-.5,1.733ZM1.184,28.123A1.061,1.061,0,0,1,.728,26.68L7.961,13.19a1.076,1.076,0,0,1,.736-.538l.049-.015a1.112,1.112,0,0,1,.136-.013l.051-.005.041.005a.628.628,0,0,1,.1.01.871.871,0,0,1,.187.044.9.9,0,0,1,.154.062c.008,0,.015,0,.015.008a.7.7,0,0,1,.169.11.112.112,0,0,1,.026.021l.062.059a.583.583,0,0,0-.054-.077,1.056,1.056,0,0,0-.151-.151l-.028-.026a1.562,1.562,0,0,0-.154-.1l-.015-.015a.051.051,0,0,1-.026-.005A.769.769,0,0,0,9.1,12.5l-.059-.021c-.041-.01-.087-.015-.131-.023a.656.656,0,0,0-.1-.008l-.038-.005-.056.005-.138.013-.051.013a1.094,1.094,0,0,0-.751.551L.392,26.795a1.082,1.082,0,0,0,.466,1.476A1.128,1.128,0,0,0,2,28.2a1.125,1.125,0,0,1-.823-.074Zm7.753-1.087A1.071,1.071,0,0,1,7.861,25.98V17.965l-.179.333V26.08a1.1,1.1,0,1,0,1.863.769,1.092,1.092,0,0,1-.61.187Zm5.09-.569a1.071,1.071,0,0,1-1.076-1.056v-4.7l-.172.336v4.524a1.117,1.117,0,0,0,2.173.364,1.074,1.074,0,0,1-.925.531ZM9.514,22.758Zm7.643-9.627s-3.442.572-7.146,1.179v6.715c-.5,1.733-.5,1.733,3-5.018a.141.141,0,0,1,.018-.021,1.076,1.076,0,0,1,2.074.384v9.04a1.077,1.077,0,0,1-2.153,0v-4.7l-2.858,5.426a.982.982,0,0,1-.149.205,1.076,1.076,0,0,1-2.084-.367V17.965L2.653,27.672a1.1,1.1,0,0,1-1.471.449,1.061,1.061,0,0,1-.456-1.446L7.1,14.782c-3.053.5-5.7.928-6.044.974a1.218,1.218,0,0,0-1.046.836S-.016,28.1.013,28.669a.767.767,0,0,0,.636.677s14.386.108,15.13,0a1.158,1.158,0,0,0,.882-.946l1.461-14.543a.75.75,0,0,0-.964-.733Z" transform="translate(0 -12.447)" fill="#0043cf"/>
</svg>
