<svg xmlns="http://www.w3.org/2000/svg" xmlns:xlink="http://www.w3.org/1999/xlink" width="30" height="20.145" viewBox="0 0 30 20.145">
  <defs>
    <linearGradient id="linear-gradient" x1="0.5" x2="0.5" y2="1" gradientUnits="objectBoundingBox">
      <stop offset="0" stop-color="#fec34d"/>
      <stop offset="0.263" stop-color="#f88c83"/>
      <stop offset="1" stop-color="#f048c6"/>
    </linearGradient>
  </defs>
  <g id="Group_103173" data-name="Group 103173" transform="translate(0 -11.177)">
    <g id="Group_103175" data-name="Group 103175" transform="translate(0 11.177)">
      <path id="Path_186932" data-name="Path 186932" d="M0,76.482a1.879,1.879,0,0,1,.439-.308c.489-.164.987-.3,1.487-.431a.445.445,0,0,1,.583.3.455.455,0,0,1-.385.555c-.329.086-.661.165-1,.248,1.554,2.964,6.347,5.794,11.107,5.3l-.271-.1A15.616,15.616,0,0,1,1.81,71.41,15.119,15.119,0,0,1,1.422,69.2c-.063-.439.152-.618.6-.585A12.787,12.787,0,0,1,6.6,69.855c.069.033.141.059.248.1,0-.164,0-.3,0-.444a12.7,12.7,0,0,1,.371-3.686c.126-.492.343-.594.815-.39a12.875,12.875,0,0,1,3.62,2.394l.274.253c.253-.638.477-1.262.746-1.865a11.937,11.937,0,0,1,1.908-3c.306-.35.539-.354.842,0a13.083,13.083,0,0,1,2.513,4.523c.036.11.075.22.122.358.256-.227.491-.44.731-.646a12.546,12.546,0,0,1,3.18-2.008c.485-.21.691-.106.824.413a12.717,12.717,0,0,1,.365,3.657c-.005.136,0,.272,0,.448.1-.043.188-.076.272-.115a12.78,12.78,0,0,1,4.518-1.23c.515-.038.681.139.632.669a14.034,14.034,0,0,1-3.271,7.691,15.479,15.479,0,0,1-7.352,5.1c-.043.014-.085.035-.147.061,3.49.784,9.627-2.133,11.084-5.279L27.9,76.6c-.314-.079-.469-.274-.42-.53a.456.456,0,0,1,.618-.322c.508.134,1.016.274,1.515.439.4.132.479.379.269.752a11.562,11.562,0,0,1-4.978,4.645,12.946,12.946,0,0,1-7.187,1.448,13.634,13.634,0,0,1-1.811-.324,3.559,3.559,0,0,0-1.736-.016,12.542,12.542,0,0,1-8.8-.966,11.718,11.718,0,0,1-5-4.332c-.13-.2-.253-.414-.379-.622v-.293M14.977,64.056c-.341.518-.679.974-.958,1.463a14.723,14.723,0,0,0-1.811,8.57.886.886,0,0,0,.188.443,15.146,15.146,0,0,1,2.51,4.762c.021.067.053.131.079.194.3-.725.55-1.452.883-2.141a15.961,15.961,0,0,1,6.07-6.7.484.484,0,0,0,.3-.447c-.006-.78.034-1.561,0-2.339a14.733,14.733,0,0,0-.206-1.493,12.337,12.337,0,0,0-3.622,2.639.4.4,0,0,0-.052.292c.1.7.213,1.407.313,2.111.05.354-.1.584-.381.613s-.455-.154-.489-.523a14.868,14.868,0,0,0-1.219-4.826,11.752,11.752,0,0,0-1.605-2.621M2.318,69.526A14.084,14.084,0,0,0,7.311,78.4a13.3,13.3,0,0,0,7.2,3.3C13.847,75.673,8.181,70.14,2.318,69.526M15.494,81.718a14.193,14.193,0,0,0,9.137-5.311,13.126,13.126,0,0,0,3.037-6.884c-6.046.669-11.569,6.351-12.173,12.195m-4.248-8.55a.621.621,0,0,0,.026-.119,17.313,17.313,0,0,1,.374-3.776.408.408,0,0,0-.116-.323A20.549,20.549,0,0,0,9.943,67.57c-.605-.447-1.268-.817-1.941-1.243a11.965,11.965,0,0,0-.209,4.015.452.452,0,0,0,.194.253c.608.44,1.238.849,1.829,1.31.5.387.945.831,1.432,1.264" transform="translate(0 -62.952)"/>
      <path id="Path_186933" data-name="Path 186933" d="M158.153,77.052a11.754,11.754,0,0,1,1.605,2.621,14.865,14.865,0,0,1,1.219,4.826c.033.37.211.552.489.523s.431-.259.381-.613c-.1-.7-.214-1.407-.313-2.111a.4.4,0,0,1,.052-.292,12.336,12.336,0,0,1,3.622-2.639,14.717,14.717,0,0,1,.206,1.493c.03.779-.01,1.56,0,2.339a.484.484,0,0,1-.3.447,15.962,15.962,0,0,0-6.07,6.7c-.333.688-.586,1.415-.883,2.141-.026-.062-.058-.127-.079-.194a15.145,15.145,0,0,0-2.51-4.762.887.887,0,0,1-.188-.443,14.723,14.723,0,0,1,1.811-8.57c.279-.489.616-.945.958-1.463" transform="translate(-143.176 -75.948)" fill="url(#linear-gradient)"/>
      <path id="Path_186934" data-name="Path 186934" d="M29.612,146.934c5.863.614,11.529,6.147,12.191,12.176a13.3,13.3,0,0,1-7.2-3.3,14.083,14.083,0,0,1-4.993-8.876" transform="translate(-27.294 -140.36)" fill="#fff"/>
      <path id="Path_186935" data-name="Path 186935" d="M197.938,159.091c.6-5.844,6.127-11.526,12.173-12.195a13.126,13.126,0,0,1-3.037,6.884,14.193,14.193,0,0,1-9.137,5.311" transform="translate(-182.443 -140.325)" fill="#fff"/>
      <path id="Path_186936" data-name="Path 186936" d="M102.05,112.9c-.486-.433-.937-.877-1.432-1.264-.59-.461-1.221-.871-1.829-1.31a.452.452,0,0,1-.194-.253,11.966,11.966,0,0,1,.209-4.015c.674.426,1.336.8,1.941,1.243a20.544,20.544,0,0,1,1.587,1.381.408.408,0,0,1,.116.323,17.312,17.312,0,0,0-.374,3.776.621.621,0,0,1-.026.119" transform="translate(-90.804 -102.685)" fill="url(#linear-gradient)"/>
    </g>
  </g>
</svg>
