<svg xmlns="http://www.w3.org/2000/svg" xmlns:xlink="http://www.w3.org/1999/xlink" width="24.25" height="24.25" viewBox="0 0 24.25 24.25">
  <defs>
    <clipPath id="clip-path">
      <circle id="Ellipse_2509" data-name="Ellipse 2509" cx="12" cy="12" r="12" transform="translate(-0.357 -0.358)"/>
    </clipPath>
  </defs>
  <g id="Saudi-Arabia-circle-flag" transform="translate(-6.106 -6.106)">
    <g id="Group_101624" data-name="Group 101624" transform="translate(6.589 6.589)" clip-path="url(#clip-path)">
      <rect id="Rectangle_27179" data-name="Rectangle 27179" width="36.253" height="24.168" transform="translate(-6.489 -0.592)" fill="#006c35"/>
      <path id="Path_185564" data-name="Path 185564" d="M40.656,59.9a.231.231,0,0,0-.09.03.65.65,0,0,0-.271.451c-.01.12-.03.12.05.191.06.08.11.07.221.01a.262.262,0,0,0,.11-.16c.03-.13-.14.06-.16-.09-.04-.14.07-.2.17-.331.01-.05.01-.1-.03-.1Zm1.645.01c-.03,0-.07.04-.12.14a.6.6,0,0,0-.08.572,1.626,1.626,0,0,1,.09.893,1.773,1.773,0,0,1-.17.241.283.283,0,0,1-.361.05.41.41,0,0,1-.221-.311,4.205,4.205,0,0,0-.03-.993.181.181,0,0,0-.3-.06,2.275,2.275,0,0,0-.542,1.113c-.08.271-.17.191-.231.08-.15-.14-.16-1.264-.351-1.073-.291.842.17,1.765.491,1.675.231.1.381-.341.471-.832.06-.14.11-.15.15-.08-.01.642.05.782.211.983a.537.537,0,0,0,.7.01l.291-.291a.171.171,0,0,1,.241-.01c.09.08.08.221.261.311.16.06.491.02.572-.12.11-.181.13-.241.181-.311.08-.1.2-.06.2-.02-.01.06-.09.11-.04.211.09.07.11.02.16.01.191-.09.331-.491.331-.491.01-.15-.08-.14-.13-.11-.07.04-.08.06-.15.1-.09.01-.271.07-.361-.06a5.714,5.714,0,0,1-.16-.552c0-.01-.12-.261-.01-.271.06.01.181.04.191-.06.06-.1-.13-.371-.251-.511a.278.278,0,0,0-.411-.01c-.1.09-.09.2-.11.3a.477.477,0,0,0,.09.411,1.255,1.255,0,0,1,.231.822.343.343,0,0,1-.3.15c-.08-.02-.211-.05-.281-.562a3.706,3.706,0,0,0-.15-1.173c-.02-.08-.05-.181-.1-.17Zm-.521.04c-.05,0-.1.06-.15.17a3.336,3.336,0,0,0-.08.521c-.03.13.14.191.211.02a1.76,1.76,0,0,0,.12-.572c-.01-.09-.05-.14-.1-.14Zm1.925.04c-.05,0-.09.03-.11.11a1.17,1.17,0,0,0,.02.421,1.248,1.248,0,0,0,.231.351c.331.451.652.9.963,1.364.05.341.08.682.11,1.023a19.691,19.691,0,0,1,.02,2.437c.14.01.361-.221.441-.562.05-.461-.02-1.414-.02-1.685,0-.11-.01-.251-.02-.391.361.592.712,1.213,1.053,1.9.12-.06.1-.762.02-.862-.271-.592-.652-1.173-.772-1.394-.04-.08-.191-.311-.371-.572-.03-.371-.07-.692-.09-.782-.06-.391.16.04.13-.181a2.6,2.6,0,0,0-.542-1.023c-.08-.12-.08-.14-.211.03a.735.735,0,0,0-.05.451,1.292,1.292,0,0,0-.13-.181c-.221-.191-.231-.2-.421-.351a.4.4,0,0,0-.251-.1Zm5.706.05a.1.1,0,0,0-.08.05.34.34,0,0,0-.12.261c.01.211.05.421.06.632a.189.189,0,0,0,.02.08.382.382,0,0,0-.05-.06c-.4-.421.191-.07-.08-.4a3.46,3.46,0,0,0-.481-.471c-.1-.06-.15-.181-.181.02a3.192,3.192,0,0,0-.01.532.672.672,0,0,0,.16.331c.271.331.542.682.822,1.053.06.752.07,1.434.13,2.186a1.467,1.467,0,0,1-.2.792.221.221,0,0,1-.241-.01,2.96,2.96,0,0,1-.351-.461.216.216,0,0,0-.341,0,4.6,4.6,0,0,0-.592,1.123c-.05.08-.191.14-.341-.01a1.582,1.582,0,0,1-.211-1.093,1.183,1.183,0,0,0-.11,1.173.944.944,0,0,0,.431.491.3.3,0,0,0,.451-.05c.2-.211.211-.752.3-.862a.183.183,0,0,1,.321-.08.778.778,0,0,0,.291.251.489.489,0,0,0,.642.05.779.779,0,0,0,.341-.421,14.2,14.2,0,0,0,.03-2.347c.14.2.281.411.421.622a15.731,15.731,0,0,1,.07,1.925c-.01.12.431-.371.431-.6v-.562c.221.341.421.692.622,1.053.12-.06.08-.762,0-.852-.211-.351-.471-.722-.672-1.013-.04-.371-.1-.8-.12-.933-.04-.211-.08-.511-.14-.762a1.953,1.953,0,0,1-.05-.431c.02-.07.11,0,.16-.08a2.719,2.719,0,0,0-.381-1.073c-.05-.1-.15-.06-.281.1-.11.11-.07.351-.03.582.11.592.211,1.183.291,1.785-.15-.221-.331-.481-.5-.742,0-.02-.02-.11-.02-.12a5.377,5.377,0,0,0-.05-.592c0-.05-.01-.06.03-.05a.68.68,0,0,0,.09.06c.05.01.1-.08.06-.16-.16-.291-.321-.582-.471-.872a.437.437,0,0,1-.07-.04Zm-14.722.02c-.09,0-.181.05-.15.16-.02.06.17.251.2.361.03.08-.03.321.03.341s.14-.17.17-.351c.02-.1,0-.431-.221-.5a.037.037,0,0,0-.03-.01Zm16.767,0c-.02,0-.04.03-.08.11a1.022,1.022,0,0,0-.08.642,33.873,33.873,0,0,1,.411,4.172,1.269,1.269,0,0,1-.08.341,3.271,3.271,0,0,1-.4.471c-.13.1-.411.191-.5.271-.291.17-.291.361-.06.371a1.461,1.461,0,0,0,1.223-.582,2.015,2.015,0,0,0,.2-.752,18.005,18.005,0,0,0-.221-3.69,1.857,1.857,0,0,1-.04-.341c.03-.07.16.01.211-.07.07-.07-.341-.6-.491-.832-.05-.06-.07-.11-.09-.11Zm-4.272.02c-.02,0-.04.03-.09.09a2.074,2.074,0,0,0-.11.9,19.59,19.59,0,0,1,.542,4.362c.14,0,.3-.321.371-.632a4.439,4.439,0,0,0-.04-.953c-.01-.251-.291-2.317-.341-2.517-.07-.361.271-.05.231-.261-.12-.271-.411-.652-.5-.893-.03-.04-.03-.1-.06-.1Zm-10.389.03a.109.109,0,0,0-.08.08c-.01.03.01.08-.02.1s-.08.01-.08-.08a.191.191,0,0,0-.03-.08c-.01-.01-.02-.01-.04-.01s-.03.01-.04.03a.186.186,0,0,0-.02.07c0,.03-.02.04-.04.05s-.02,0-.04-.01-.03-.02-.03-.04-.01-.06-.01-.08a.219.219,0,0,0-.05-.03c-.11,0-.12.12-.11.17a.289.289,0,0,0,.14.291c.2.09.572.05.552-.271,0-.03-.01-.12-.01-.15a.109.109,0,0,0-.09-.04Zm2.668.01a.3.3,0,0,0-.241.5c.1.05.2.15.13.2-.281.3-1.033.812-1.063.913h0a2.031,2.031,0,0,0,.552,0h0a7.952,7.952,0,0,0,.923-.923,1.066,1.066,0,0,1-.11-.09.066.066,0,0,1,0-.11.3.3,0,0,0,.03-.461.437.437,0,0,0-.221-.03Zm6.97,0c-.02,0-.04.03-.08.11a1.242,1.242,0,0,0-.14.642c.191,1.344.251,2.517.381,3.861a.546.546,0,0,1-.09.391,3.858,3.858,0,0,1-1.284.933c-.05.06.13.321.381.321a1.413,1.413,0,0,0,1.093-.882,1.621,1.621,0,0,0,.251-.672,14.948,14.948,0,0,0-.271-3.41.808.808,0,0,1,.01-.241c.03-.03.12,0,.16-.08.07-.07-.191-.662-.331-.882-.04-.05-.05-.09-.08-.09Zm-10.811.04a.163.163,0,0,0-.13.11,4.382,4.382,0,0,0,.01.632,6.91,6.91,0,0,1,.181,1.013c.01.481-.281.211-.261-.03a2.072,2.072,0,0,0-.01-.913c-.05-.12-.1-.15-.221-.13-.09-.01-.321.251-.391.672,0,0-.05.221-.08.411-.03.221-.181.371-.281-.03-.09-.291-.14-1.013-.291-.842-.04.562-.09,1.554.391,1.665.582.06.261-.983.471-1.173.04-.09.11-.09.12.02v.882a.414.414,0,0,0,.331.431c.15-.01.251-.01.311.14.02.511.05,1.013.07,1.524,0,0,.351.1.371-.852.02-.562-.11-1.033-.04-1.143,0-.11.14-.11.231-.06.15.11.221.241.451.191.361-.1.572-.271.582-.552a2.42,2.42,0,0,0-.16-.782c.02-.05-.07-.17-.05-.221.06.1.16.09.181,0a.83.83,0,0,0-.311-.481c-.13-.11-.311-.09-.381.14a1.269,1.269,0,0,0,.291.842.8.8,0,0,1,.07.421.223.223,0,0,1-.291-.06s-.281-.211-.281-.261c.08-.481.02-.542-.03-.672-.03-.191-.12-.241-.191-.371-.07-.08-.17-.08-.211,0a1.272,1.272,0,0,0,.02.9c.07.191.17.311.12.311-.04.11-.12.08-.181-.04a3.315,3.315,0,0,1-.1-.822c-.03-.221-.05-.682-.2-.8a.094.094,0,0,0-.11-.07Zm2.046,0a.54.54,0,0,0-.1.03.288.288,0,0,0-.2.351c.15.882.241,1.564.391,2.447a.194.194,0,0,1-.181.231c-.191-.13-.241-.391-.562-.381a.65.65,0,0,0-.542.5,1.265,1.265,0,0,0,0,.582.465.465,0,0,0,.542.13c.14-.06.261-.2.311-.17h0c.03.05,0,.511-.672.872-.411.181-.742.231-.913-.11-.11-.211.01-1.013-.261-.822-.8,2.066,1.855,2.357,2.156.1.02-.06.08-.13.12-.11.02.01.03.03.04.08-.06,2.036-2.056,2.176-2.4,1.534a2.126,2.126,0,0,1-.12-.692.434.434,0,0,0-.08-.221c-.08-.06-.191.1-.211.371a2.723,2.723,0,0,0-.02.491c.11,1.615,2.678.923,3.1-.411a3.9,3.9,0,0,0,.06-1.274h.01c.251.271.612.03.692-.06a.118.118,0,0,1,.181-.02.41.41,0,0,0,.622-.181,6.328,6.328,0,0,0,.09-.762,1,1,0,0,0-.281.11.052.052,0,0,0-.02.04c-.01.07-.02.15-.03.221,0,.01,0,.01-.01.02s-.01.02-.02.02c-.05.02-.13.01-.13-.06-.06-.281-.311-.321-.471.12-.1.08-.291.1-.311-.03.03-.291-.09-.331-.331-.191-.08-.582-.15-1.133-.231-1.7.1,0,.191.07.281-.04a3.232,3.232,0,0,0-.421-.973h0l-.02-.02a.01.01,0,0,1-.01-.01h-.01a.031.031,0,0,1-.02-.01Zm7.942.01c-.1,0-.211.06-.17.191-.03.07.221.3.261.431.07.2-.05.391.02.411s.16-.2.2-.421a.645.645,0,0,0-.261-.612Zm-6.188.211a.161.161,0,0,1,.13.1c.03.06.01.13-.03.14a.145.145,0,0,1-.14-.09c-.03-.07-.02-.13.04-.15Zm11.482.3a.149.149,0,0,0-.15.2c-.02.08.2.331.231.471.03.1-.05.421.02.451s.15-.221.181-.461c.02-.13-.08-.582-.241-.662Zm-6.348.16a.517.517,0,0,1,.02.11,2.217,2.217,0,0,1,.05.251,2.086,2.086,0,0,0-.16-.211c-.16-.2.01-.13.09-.15Zm1.464.712a.108.108,0,0,0-.08.09c-.01.03.02.08-.01.1s-.08.01-.08-.08a.192.192,0,0,0-.03-.08c-.01-.01-.02-.01-.04-.01s-.03.01-.04.03a.186.186,0,0,0-.02.07c0,.03-.01.04-.04.05s-.02,0-.04-.01-.03-.02-.03-.04-.01-.06-.01-.08a.219.219,0,0,0-.05-.03c-.11,0-.11.12-.11.17-.01.01-.01.231.13.291.2.09.572.05.562-.271,0-.03-.01-.12-.01-.15a.16.16,0,0,0-.1-.05Zm-6.679.07a.19.19,0,0,0-.09.03.4.4,0,0,0-.13.542.266.266,0,0,0,.281.09c.17.02.271-.321.271-.321s.01-.1-.2.09c-.09.02-.1-.01-.12-.06a.531.531,0,0,1,.03-.281c.02-.05,0-.08-.04-.09Zm9.437.04a.232.232,0,0,0-.231.191c0,.08.04.12.03.191-.01.04-.05.07-.15.02.02-.01-.06-.13-.06-.13-.08-.05-.181,0-.251.05a.375.375,0,0,0-.02.3c.11.211.5.562.682.562,0-.191.02-.431.03-.592a.142.142,0,0,1,.07-.14c.06-.01.15.06.15,0a.8.8,0,0,0-.1-.381.3.3,0,0,0-.15-.07Zm-7.762.652h0l-.01.01c-.02.01-.04.05-.1.09-.09.1-.1.17-.1.371.01.02.17.481.311.8a2.571,2.571,0,0,1,.12,1.073A2.689,2.689,0,0,1,40.155,65.8a.545.545,0,0,1-.451,0h0a.284.284,0,0,1-.12-.261v-.07h0a2.542,2.542,0,0,0,1.073-1.093,1.146,1.146,0,0,0,.03-.792.77.77,0,0,0-.181-.361h0c.06-.03.221.08.241.01a1.159,1.159,0,0,0-.311-.562.262.262,0,0,0-.381-.02c-.13.07-.16.331-.09.552.07.17.261.2.391.542h0c0,.02.05.251-.02.351a3.866,3.866,0,0,1-.8.742h-.01c0-.01,0-.02-.02-.02h.02v-.1c0-.1.03-.371.03-.371h.05v.02h-.05s-.3.582-.341.712a11.241,11.241,0,0,0-1.615,1.1c-.2.311,1.354-.351,1.534-.431h0a1.163,1.163,0,0,0,.14.291.825.825,0,0,0,.842.271A2.624,2.624,0,0,0,41.328,65.3c.05-.07.12-.12.191-.07a1.929,1.929,0,0,0,1.725.9c.191-.241.1-.351.02-.4-.02-.02-.421-.17-.481-.321-.04-.14.06-.271.241-.361a9.214,9.214,0,0,0,1.584-.3,1.638,1.638,0,0,1,.17-.542.29.29,0,0,1,.09-.1h-.01c.01,0,.01-.01.01-.02l-.09-.05H43.053A.219.219,0,0,1,43,64h0a.22.22,0,0,1,.05-.03c.411-.06,1.143-.181,1.193-.882a.582.582,0,1,0-1.143.03c-.02.09.03.281-.06.3-.632.06-1.324.451-1.354.692h0v.05h0v.05h.06a.169.169,0,0,1-.09-.181,3.407,3.407,0,0,0-.451-1.524c-.09-.09-.13-.13-.16-.13-.01-.06-.02-.06-.03-.06Zm1.6.261a.109.109,0,0,0-.08.08c-.01.03.02.08-.01.1s-.08.01-.08-.08a.191.191,0,0,0-.03-.08c-.01-.01-.02-.01-.04-.01s-.03.01-.04.03a.186.186,0,0,0-.02.07c0,.03-.01.04-.04.05s-.02,0-.04-.01-.03-.02-.03-.04a.08.08,0,0,0-.06-.11c-.11,0-.11.12-.11.17-.01.01-.01.231.13.291.2.09.672.04.562-.271,0-.03-.01-.12-.01-.15a.144.144,0,0,0-.1-.04Zm6.669.281h-.02s-.923.652-.943.682c-.09.08-.05.371,0,.331A3.506,3.506,0,0,0,49.3,63.2c.04-.01.06-.331-.01-.341Zm-5.8.09a.221.221,0,0,1,.13.04.2.2,0,0,1,.11.14h0l-.01.01a.155.155,0,0,1-.181-.02.2.2,0,0,1-.11-.14h0c0-.01,0-.01.01-.02v-.01h0l.01-.01c0,.02.02.01.04.01Zm-8.073.17a1.52,1.52,0,0,0-1.193.973c.5-.241,1-.471,1.514-.722-.09-.13-.01-.241-.321-.251Zm1.544.211a.115.115,0,0,1,.12.09.152.152,0,0,1-.03.15h0c-.02.03-.09.02-.14.02a.138.138,0,0,1-.13-.06c-.02-.05.04-.11.06-.15h0l.01-.01a.2.2,0,0,1,.08-.04Zm12.144.191a.162.162,0,0,0-.13.221,2.128,2.128,0,0,0,.15.481c.03.1-.04.381.03.411s.221-.17.221-.421c.02-.13-.05-.6-.211-.682a.127.127,0,0,0-.06-.01ZM38.8,63.992c-.07.01-.14.05-.11.15,0,.08.211.17.221.351.03.07-.05.311.02.331s.14-.16.17-.331c.02-.09-.07-.431-.231-.481a.066.066,0,0,0-.07-.02Zm3.089.4h.02a4.8,4.8,0,0,0,.722.08c.2.01.3.17.11.231s-.361.11-.361.381c.02.13.02.2,0,.231a.01.01,0,0,1-.01.01h-.02c-.04.01-.11-.04-.16-.06a1,1,0,0,1-.481-.7c-.01-.08.06-.16.181-.17Zm-7.541.341c-.01,0-.04.04-.07.08a1.5,1.5,0,0,0-.15,1.334.341.341,0,0,0,.321.11.572.572,0,0,0,.211-.572c-.06-.09-.11-.11-.17-.03-.13.251-.181.08-.191-.06a3.1,3.1,0,0,1,.04-.712c.02-.11.02-.15.01-.15Zm9.677.592a.2.2,0,0,0-.07.01,1.289,1.289,0,0,0-.271.231c-.04.03-.03.06-.02.11.03.07.08.05.14.02.08-.01.12.04.11.14-.04.12.02.17.02.17a.138.138,0,0,0,.17.02,3.521,3.521,0,0,1,.582-.2c.07,0,.07-.191-.05-.2a.659.659,0,0,0-.431.13c-.09.02-.11-.03-.13-.08-.02-.12.05-.211.04-.3.02,0-.03-.04-.09-.05Zm6.188.241c-.04,0-.07.01-.13.01s-.08.04-.09.11c0,.11.07.1.14.15a.126.126,0,0,1,0,.181c-.06.06-.11.09-.17.15-.03.05-.05.13.04.16.17.05.572-.211.572-.221a.154.154,0,0,0,.04-.14c-.04-.04-.12-.02-.181-.02-.03,0-.12-.01-.07-.09a.37.37,0,0,0,.07-.14c.03-.06,0-.1-.09-.13a.218.218,0,0,0-.13-.02Zm-2.647,5.255h0a.259.259,0,0,0-.09.481c-2.908,0-7.551-.05-8.584-.05-.582,0-2.407-.07-2.447-.07a1.855,1.855,0,0,0,1.7.7c1.394,0,7.561-.02,9.346-.02a.617.617,0,0,0,.11.652h.02c.12.03.17-.06.211-.12a12.349,12.349,0,0,0,1.364,0h0c.07.1.13.191.261.17.221-.05.4-.07.4-.521,0,0-.02-.772-.532-.722-.12.02-.451.05-.451.05-.391-.05-.672-.05-1.1-.07.04-.05.11-.261.02-.331a.15.15,0,0,0-.1-.03h0a.01.01,0,0,1-.01-.01h0c-.02-.03-.03-.11-.05-.13h0c0,.02-.06.02-.07.02Zm.271,1.073h0c.441.02.862,0,1.3.03a.165.165,0,0,1-.01.221H49.1c-.14,0-.231-.01-.371-.01v-.02c-.03-.1-.281-.09-.341-.02h0v.04a5.25,5.25,0,0,1-.562-.01c-.06-.07-.06-.2.01-.231Z" transform="translate(-31.511 -54.786)" fill="#fff"/>
    </g>
    <circle id="Ellipse_2510" data-name="Ellipse 2510" cx="12" cy="12" r="12" transform="translate(6.231 6.231)" fill="none" stroke="#000" stroke-width="0.25"/>
  </g>
</svg>
