<svg id="amazon-2" xmlns="http://www.w3.org/2000/svg" width="54.54" height="16.419" viewBox="0 0 54.54 16.419">
  <path id="Path_181988" data-name="Path 181988" d="M229.8,320.231a20.721,20.721,0,0,1-11.712,3.579,21.235,21.235,0,0,1-14.314-5.454c-.287-.268-.038-.632.325-.421a28.431,28.431,0,0,0,25.241,1.55c.536-.211.976.364.459.746Z" transform="translate(-195.964 -307.39)" fill="#f90" fill-rule="evenodd"/>
  <path id="Path_181989" data-name="Path 181989" d="M330.48,316.324c-.4-.517-2.679-.249-3.693-.115-.306.038-.364-.23-.077-.421,1.818-1.282,4.784-.9,5.129-.478s-.1,3.406-1.8,4.823c-.268.211-.517.1-.4-.191C330.02,318.984,330.882,316.86,330.48,316.324Z" transform="translate(-295.326 -304.995)" fill="#f90" fill-rule="evenodd"/>
  <path id="Path_181990" data-name="Path 181990" d="M195.018,264.9v-1.244a.291.291,0,0,1,.306-.306h5.55a.319.319,0,0,1,.325.306v1.053c0,.172-.153.4-.421.785l-2.871,4.1a6.234,6.234,0,0,1,3.158.67.57.57,0,0,1,.287.478v1.32c0,.191-.191.4-.4.287a6.33,6.33,0,0,0-5.856.019.3.3,0,0,1-.4-.287v-1.263a1.43,1.43,0,0,1,.211-.842l3.33-4.765h-2.89a.319.319,0,0,1-.325-.306Zm-20.228,7.712h-1.684a.346.346,0,0,1-.306-.287v-8.65a.319.319,0,0,1,.325-.306H174.7a.312.312,0,0,1,.306.287v1.129h.038a2.31,2.31,0,0,1,4.4,0,2.4,2.4,0,0,1,2.335-1.608,2.372,2.372,0,0,1,1.952.957,4.588,4.588,0,0,1,.421,2.718v5.473a.319.319,0,0,1-.325.306h-1.665a.329.329,0,0,1-.306-.306v-4.593a11.477,11.477,0,0,0-.038-1.627.888.888,0,0,0-1-.746,1.127,1.127,0,0,0-1.014.708,5.3,5.3,0,0,0-.153,1.665v4.593a.319.319,0,0,1-.325.306h-1.684a.329.329,0,0,1-.306-.306v-4.593c0-.957.153-2.392-1.033-2.392-1.206,0-1.167,1.378-1.167,2.392v4.593A.336.336,0,0,1,174.791,272.611Zm31.193-9.435c2.507,0,3.866,2.143,3.866,4.88,0,2.641-1.493,4.746-3.866,4.746-2.45,0-3.789-2.143-3.789-4.822C202.175,265.282,203.534,263.177,205.984,263.177Zm0,1.78c-1.244,0-1.32,1.7-1.32,2.756s-.019,3.311,1.3,3.311c1.3,0,1.378-1.818,1.378-2.928a8.374,8.374,0,0,0-.249-2.3A1.058,1.058,0,0,0,205.984,264.956Zm7.1,7.655H211.4a.329.329,0,0,1-.306-.306v-8.669a.331.331,0,0,1,.325-.287h1.569a.327.327,0,0,1,.306.249v1.32h.038a2.286,2.286,0,0,1,2.3-1.741,2.229,2.229,0,0,1,1.971,1.014,5.511,5.511,0,0,1,.44,2.7v5.454a.315.315,0,0,1-.325.268H216.03a.348.348,0,0,1-.306-.268v-4.708c0-.957.115-2.335-1.053-2.335a1.108,1.108,0,0,0-.976.689,3.972,3.972,0,0,0-.268,1.646V272.3A.351.351,0,0,1,213.083,272.611ZM190.6,268.477a3.422,3.422,0,0,1-.306,1.8,1.354,1.354,0,0,1-1.167.766c-.651,0-1.033-.5-1.033-1.225,0-1.435,1.282-1.7,2.507-1.7Zm1.7,4.114a.346.346,0,0,1-.4.038,4.225,4.225,0,0,1-.976-1.129,3.352,3.352,0,0,1-2.775,1.225,2.4,2.4,0,0,1-2.526-2.622,2.865,2.865,0,0,1,1.8-2.756,11.95,11.95,0,0,1,3.177-.593v-.211a2.067,2.067,0,0,0-.211-1.225,1.133,1.133,0,0,0-.938-.44,1.274,1.274,0,0,0-1.359,1.014c-.038.153-.134.306-.287.306l-1.627-.172a.3.3,0,0,1-.249-.344c.383-1.99,2.162-2.583,3.77-2.583a3.787,3.787,0,0,1,2.545.842c.823.766.746,1.8.746,2.909v2.622a2.371,2.371,0,0,0,.632,1.569c.115.153.134.344,0,.44-.364.287-.976.823-1.32,1.11Zm-23.806-4.114a3.422,3.422,0,0,1-.306,1.8,1.355,1.355,0,0,1-1.167.766c-.651,0-1.033-.5-1.033-1.225,0-1.435,1.282-1.7,2.507-1.7Zm1.684,4.114a.346.346,0,0,1-.4.038,4.227,4.227,0,0,1-.976-1.129,3.352,3.352,0,0,1-2.775,1.225A2.4,2.4,0,0,1,163.5,270.1a2.865,2.865,0,0,1,1.8-2.756,11.95,11.95,0,0,1,3.177-.593v-.211a2.067,2.067,0,0,0-.21-1.225,1.133,1.133,0,0,0-.938-.44,1.274,1.274,0,0,0-1.359,1.014c-.038.153-.134.306-.287.306l-1.627-.172a.294.294,0,0,1-.249-.344c.383-1.99,2.162-2.583,3.77-2.583a3.787,3.787,0,0,1,2.545.842c.823.766.746,1.8.746,2.909v2.622a2.371,2.371,0,0,0,.632,1.569c.115.153.134.344,0,.44C171.136,271.769,170.523,272.3,170.179,272.592Z" transform="translate(-163.5 -263.1)" fill-rule="evenodd"/>
</svg>
