<svg xmlns="http://www.w3.org/2000/svg" xmlns:xlink="http://www.w3.org/1999/xlink" width="22.741" height="30" viewBox="0 0 22.741 30">
  <defs>
    <linearGradient id="linear-gradient" x1="0.5" x2="0.5" y2="1" gradientUnits="objectBoundingBox">
      <stop offset="0" stop-color="#fec34d"/>
      <stop offset="0.263" stop-color="#f88c83"/>
      <stop offset="1" stop-color="#f048c6"/>
    </linearGradient>
  </defs>
  <g id="Group_103198" data-name="Group 103198" transform="translate(-65.576 -25.989)">
    <g id="Group_103200" data-name="Group 103200" transform="translate(65.576 25.989)">
      <path id="Path_186958" data-name="Path 186958" d="M83.638,43.715c.112.934.3,1.866.321,2.8a16.054,16.054,0,0,0,1.1,4.457,4.453,4.453,0,0,1,.207,2.388,3.345,3.345,0,0,1-2.4,2.379,6.217,6.217,0,0,1-3.359.029,9.322,9.322,0,0,0-3.029-.358c-.8.107-1.589.288-2.385.426a5.641,5.641,0,0,1-3.309-.229,3.173,3.173,0,0,1-2.019-3.919,15.419,15.419,0,0,1,.594-1.961A10.666,10.666,0,0,0,70,46.853c.076-.938.219-1.871.33-2.806.009-.076,0-.153,0-.3-.256.11-.47.218-.694.3a3.32,3.32,0,0,0-2.385,2.99c-.156,1.46-.379,2.913-.507,4.375-.1,1.152-.1,2.312-.148,3.468a.513.513,0,1,1-1.021-.036,56.606,56.606,0,0,1,.526-7.15c.13-.748.335-1.485.535-2.219a2.681,2.681,0,0,1,1.385-1.706c.742-.393,1.516-.726,2.27-1.1a3.182,3.182,0,0,0,.42-.308,3.2,3.2,0,0,1,.678-.468,17.3,17.3,0,0,1,1.768-.54,2.662,2.662,0,0,1,.712.031c.1-.358.229-.774.327-1.2a.464.464,0,0,0-.1-.325,7.387,7.387,0,0,1-1.27-2.8,1.456,1.456,0,0,0-.3-.576,3.331,3.331,0,0,1-.778-1.686c-.09-.608-.283-1.2-.344-1.811a6.211,6.211,0,0,1,5.164-6.94A5.427,5.427,0,0,1,82.252,29a7.152,7.152,0,0,1,.893,4.114c-.019.216.094.289.244.386a3.266,3.266,0,0,1,1.641,3.139,3.009,3.009,0,0,1-2.561,2.7,3.838,3.838,0,0,1-1.9-.09.273.273,0,0,0-.383.144c-.043.078-.1.148-.151.223-.136.2-.4.419-.38.6a8.742,8.742,0,0,0,.39,1.409c.377-.461.739-.32,1.108-.2.4.133.814.252,1.224.368a1.59,1.59,0,0,1,.9.55.858.858,0,0,0,.344.188c.79.347,1.594.666,2.37,1.041A2.992,2.992,0,0,1,87.6,45.6a16.94,16.94,0,0,1,.582,3.752c.081,1.773.093,3.55.133,5.325a1.458,1.458,0,0,1-.028.367.475.475,0,0,1-.546.393.485.485,0,0,1-.465-.454,1.848,1.848,0,0,1-.006-.236c-.045-1.853-.057-3.708-.146-5.56a13.259,13.259,0,0,0-.583-3.511,1.711,1.711,0,0,0-.806-1.038c-.668-.357-1.352-.685-2.028-1.025l-.07.1m-10.867-1.2a10.1,10.1,0,0,0-.983.316.547.547,0,0,0-.3.338c-.163,1.087-.323,2.175-.434,3.268a12.25,12.25,0,0,1-.662,3.421,14.482,14.482,0,0,0-.593,1.857,2.325,2.325,0,0,0,1.847,3.109,5.5,5.5,0,0,0,2.47-.037,11.277,11.277,0,0,1,3.125-.426c.891.088,1.772.276,2.655.433a5.122,5.122,0,0,0,2.469.015c1.477-.464,2.249-1.413,1.816-3.033-.174-.649-.417-1.279-.595-1.928a20.117,20.117,0,0,1-.549-2.281c-.222-1.464-.37-2.938-.554-4.408-.012-.092-.055-.233-.119-.257-.369-.139-.749-.249-1.164-.381,0,.155,0,.232,0,.309a16.855,16.855,0,0,1-.171,4.2,3.455,3.455,0,0,1-1.993,2.708,5.369,5.369,0,0,1-2.771.351,3.6,3.6,0,0,1-3.342-3.166,10.035,10.035,0,0,1-.148-1.675c-.023-.885-.006-1.771-.006-2.729m2.9-10.843a5.09,5.09,0,0,1-2.8,2.816c-.072.03-.124.224-.105.327a2.156,2.156,0,0,0,.638,1.121,1.315,1.315,0,0,1,.334.622,5.951,5.951,0,0,0,2.2,3.705,1.411,1.411,0,0,0,2.154-.051,7.124,7.124,0,0,0,2.266-3.663,1.9,1.9,0,0,1,.379-.686,2.178,2.178,0,0,0,.6-1.46c-.012-.841-.046-.867-.852-.859a6.444,6.444,0,0,1-4.659-1.767,1.474,1.474,0,0,0-.155-.1M75.1,40.917c-.109.307-.2.549-.279.792-.138.411-.325.761-.825.822-.07.009-.169.171-.173.266-.029.706-.076,1.415-.043,2.12a10.754,10.754,0,0,0,.257,2.2,2.341,2.341,0,0,0,2.1,1.9,7.778,7.778,0,0,0,1.342.056,2.5,2.5,0,0,0,2.562-2.412c.157-1.23.105-2.485.156-3.729.011-.264-.088-.4-.351-.421a.843.843,0,0,1-.782-.674c-.085-.271-.2-.533-.313-.834a2.536,2.536,0,0,1-3.65-.089m7.021-7.953a5.783,5.783,0,0,0-2.074-5.04A4.226,4.226,0,0,0,76.33,27.1a5.144,5.144,0,0,0-3.866,4.129,5.267,5.267,0,0,0,.049,2.291,3.693,3.693,0,0,0,1.5-1.039,4.271,4.271,0,0,0,.925-1.809.533.533,0,0,1,.935-.271c.084.075.158.16.236.24a5.589,5.589,0,0,0,4.171,1.878,2.592,2.592,0,0,1,1.842.447m.31,1.259c-.019.026-.031.034-.032.044-.009.066-.018.132-.024.2a2.953,2.953,0,0,1-.643,1.773c-.522.584-.523,1.36-.892,1.993a2.383,2.383,0,0,0,3.1-1.277,2.24,2.24,0,0,0-1.514-2.732" transform="translate(-65.576 -25.989)"/>
      <path id="Path_186959" data-name="Path 186959" d="M114.282,209.409c0,.957-.017,1.844.006,2.729a10.037,10.037,0,0,0,.148,1.675,3.6,3.6,0,0,0,3.342,3.166,5.37,5.37,0,0,0,2.771-.351,3.455,3.455,0,0,0,1.993-2.708,16.855,16.855,0,0,0,.171-4.2c0-.076,0-.153,0-.309.415.132.8.243,1.164.381.064.024.107.165.119.257.185,1.469.333,2.944.554,4.408a20.105,20.105,0,0,0,.549,2.281c.178.648.421,1.279.594,1.928.434,1.62-.338,2.569-1.816,3.033a5.123,5.123,0,0,1-2.469-.015c-.883-.156-1.764-.345-2.655-.433a11.273,11.273,0,0,0-3.125.426,5.5,5.5,0,0,1-2.47.037,2.325,2.325,0,0,1-1.847-3.109,14.48,14.48,0,0,1,.593-1.857,12.249,12.249,0,0,0,.662-3.421c.111-1.093.271-2.181.434-3.268a.547.547,0,0,1,.3-.338,10.075,10.075,0,0,1,.983-.316" transform="translate(-107.086 -192.881)" fill="url(#linear-gradient)"/>
      <path id="Path_186960" data-name="Path 186960" d="M148.27,89.073a1.472,1.472,0,0,1,.155.1,6.444,6.444,0,0,0,4.659,1.767c.806-.007.84.019.852.859a2.178,2.178,0,0,1-.6,1.46,1.9,1.9,0,0,0-.379.686,7.124,7.124,0,0,1-2.266,3.663,1.411,1.411,0,0,1-2.154.051,5.951,5.951,0,0,1-2.2-3.705,1.315,1.315,0,0,0-.334-.622,2.156,2.156,0,0,1-.638-1.121c-.019-.1.034-.3.105-.327a5.09,5.09,0,0,0,2.8-2.816" transform="translate(-138.174 -83.388)" fill="#fff"/>
      <path id="Path_186961" data-name="Path 186961" d="M157.8,191.662a2.536,2.536,0,0,0,3.65.089c.114.3.227.563.313.834a.843.843,0,0,0,.782.673c.263.02.362.157.351.421-.05,1.244,0,2.5-.156,3.729a2.5,2.5,0,0,1-2.562,2.412,7.79,7.79,0,0,1-1.342-.056,2.342,2.342,0,0,1-2.1-1.9,10.76,10.76,0,0,1-.257-2.2c-.034-.7.013-1.414.043-2.12,0-.095.1-.257.173-.266.5-.061.686-.411.824-.822.082-.243.171-.485.279-.792" transform="translate(-148.281 -176.733)" fill="#fff"/>
      <path id="Path_186962" data-name="Path 186962" d="M150.642,42.934a2.591,2.591,0,0,0-1.842-.447,5.589,5.589,0,0,1-4.171-1.878c-.078-.08-.153-.165-.236-.24a.533.533,0,0,0-.935.271,4.274,4.274,0,0,1-.925,1.809,3.692,3.692,0,0,1-1.5,1.039,5.267,5.267,0,0,1-.049-2.291,5.145,5.145,0,0,1,3.866-4.129,4.226,4.226,0,0,1,3.715.825,5.784,5.784,0,0,1,2.074,5.04" transform="translate(-134.1 -35.959)" fill="#fff"/>
      <path id="Path_186963" data-name="Path 186963" d="M236.531,117.373a2.24,2.24,0,0,1,1.514,2.732,2.383,2.383,0,0,1-3.1,1.277c.369-.633.37-1.409.892-1.993a2.953,2.953,0,0,0,.643-1.773c.006-.066.015-.133.024-.2,0-.01.013-.018.032-.044" transform="translate(-219.679 -109.138)" fill="#fff"/>
    </g>
  </g>
</svg>
