<svg xmlns="http://www.w3.org/2000/svg" width="19" height="18" viewBox="0 0 19 18">
  <g id="Group_101327" data-name="Group 101327" transform="translate(-293 -731)">
    <g id="Heart" transform="translate(293 731)">
      <g id="Path_33961" transform="translate(0 0)" fill="none" stroke-linecap="round" stroke-linejoin="round">
        <path d="M9.261,17.854a34.84,34.84,0,0,1-6.022-4.689A11.99,11.99,0,0,1,.373,8.6C-.7,5.25.554,1.421,4.071.288A5.978,5.978,0,0,1,9.5,1.2h0A5.987,5.987,0,0,1,14.921.288C18.438,1.421,19.7,5.25,18.628,8.6a11.99,11.99,0,0,1-2.866,4.57A34.84,34.84,0,0,1,9.74,17.854L9.505,18Z" stroke="none"/>
        <path d="M 9.500613212585449 16.23250770568848 C 11.36644077301025 15.03335571289062 13.11642646789551 13.64392566680908 14.71022319793701 12.09558963775635 C 15.82301902770996 10.98564529418945 16.68534660339355 9.611663818359375 17.20524024963379 8.120294570922852 C 17.62736320495605 6.795722484588623 17.59248733520508 5.360756874084473 17.10901260375977 4.180737018585205 C 16.7618236541748 3.333357095718384 16.02059364318848 2.217757225036621 14.46250343322754 1.715707182884216 C 14.01876354217529 1.573227167129517 13.55802345275879 1.50098717212677 13.09307289123535 1.50098717212677 C 12.11496353149414 1.50098717212677 11.18215274810791 1.812517166137695 10.3955135345459 2.401907205581665 C 9.862072944641113 2.801586627960205 9.128883361816406 2.801307201385498 8.59575366973877 2.401217222213745 C 7.810103416442871 1.811637163162231 6.878203392028809 1.499997138977051 5.900783061981201 1.499997138977051 C 5.43561315536499 1.499997138977051 4.974673271179199 1.572457194328308 4.531163215637207 1.715227127075195 C 2.973263263702393 2.217217206954956 2.234133243560791 3.332097053527832 1.888423204421997 4.178966999053955 C 1.406861305236816 5.358598709106445 1.373367786407471 6.79421329498291 1.795986294746399 8.120292663574219 C 2.315942287445068 9.611854553222656 3.178411722183228 10.98597526550293 4.291396141052246 12.09597206115723 C 5.885021209716797 13.64405727386475 7.635035991668701 15.03351593017578 9.500613212585449 16.23250770568848 M 9.505133628845215 17.99999809265137 L 9.261013031005859 17.85376739501953 C 7.09039306640625 16.51788711547852 5.071113109588623 14.94564723968506 3.239293098449707 13.1651668548584 C 1.951433181762695 11.88294696807861 0.9710032343864441 10.31976699829102 0.3730932176113129 8.59538745880127 C -0.7028567790985107 5.250307083129883 0.5539332032203674 1.420827150344849 4.071123123168945 0.2875171601772308 C 5.919614315032959 -0.3075631558895111 7.938453197479248 0.03255742415785789 9.496092796325684 1.20147716999054 C 11.0543327331543 0.03397674858570099 13.07246112823486 -0.3060224950313568 14.92106342315674 0.2875171601772308 C 18.43825340270996 1.420827150344849 19.70408248901367 5.250307083129883 18.62813377380371 8.59538745880127 C 18.03022384643555 10.31976699829102 17.04978370666504 11.88294696807861 15.76193332672119 13.1651668548584 C 13.93011283874512 14.94564723968506 11.91083335876465 16.51788711547852 9.740213394165039 17.85376739501953 L 9.505133628845215 17.99999809265137 Z" stroke="none" fill="#b5b5b5"/>
      </g>
      <path id="Path_33964" d="M0,0A2.782,2.782,0,0,1,1.917,2.422" transform="translate(13.239 4.053)" fill="none" stroke="#b5b5b5" stroke-linecap="round" stroke-linejoin="round" stroke-width="1.5"/>
    </g>
  </g>
</svg>
