<svg id="Group_103202" data-name="Group 103202" xmlns="http://www.w3.org/2000/svg" xmlns:xlink="http://www.w3.org/1999/xlink" width="30" height="30" viewBox="0 0 30 30">
  <defs>
    <clipPath id="clip-path">
      <rect id="Rectangle_34520" data-name="Rectangle 34520" width="30" height="30" fill="none"/>
    </clipPath>
    <linearGradient id="linear-gradient" x1="0.5" x2="0.5" y2="1" gradientUnits="objectBoundingBox">
      <stop offset="0" stop-color="#fec34d"/>
      <stop offset="0.263" stop-color="#f88c83"/>
      <stop offset="1" stop-color="#f048c6"/>
    </linearGradient>
  </defs>
  <g id="Group_103201" data-name="Group 103201" clip-path="url(#clip-path)">
    <path id="Path_186965" data-name="Path 186965" d="M52.741,30.383a1.574,1.574,0,0,1-1.2-1.316,2.675,2.675,0,0,1-.016-.379c0-1.8,0-3.605-.006-5.408a1.17,1.17,0,0,0-.118-.5,20.983,20.983,0,0,1-1.754-5.608,41.1,41.1,0,0,1-.6-5.865,4.944,4.944,0,0,0-.179-1.024c-.732-2.86-.354-5.46,1.849-7.589A7.714,7.714,0,0,1,54.616.771a13.859,13.859,0,0,1,8.424.67,5.9,5.9,0,0,1,3.7,4.39c.071.34.1.689.145,1.059.305-.082.6-.182.9-.238A2.409,2.409,0,0,1,70.8,8.706a9.257,9.257,0,0,1-.021,3.829A16.515,16.515,0,0,1,67.3,19.713a24.746,24.746,0,0,1-3.118,3.279.625.625,0,0,0-.173.421c-.012,1.7-.032,3.391,0,5.086A1.7,1.7,0,0,1,62.8,30.383ZM58.259,1.451a12.583,12.583,0,0,0-3.834.4A7.04,7.04,0,0,0,50.917,3.89a6.4,6.4,0,0,0,.4,8.475,9.636,9.636,0,0,0,8.537,2.666,6.53,6.53,0,0,0,4.672-3.005,9.043,9.043,0,0,0,1.349-4.6,5.018,5.018,0,0,0-3.061-5,11.9,11.9,0,0,0-4.555-.973M52.518,23.4v.346q0,2.456,0,4.911c0,.582.148.732.721.732H62.3a1.446,1.446,0,0,0,.263-.008.459.459,0,0,0,.42-.42c.018-.179,0-.362,0-.568h-.371q-3.26,0-6.519,0a1,1,0,0,1-1.077-1.077c0-.575,0-1.15,0-1.725,0-.83.359-1.188,1.195-1.188h6.763v-1H56.762c-.5,0-.742-.16-.744-.5s.238-.5.739-.5c2.1,0,4.19,0,6.286-.008a.808.808,0,0,0,.489-.183,21.82,21.82,0,0,0,4.786-5.852,11.89,11.89,0,0,0,1.653-6.244,5.923,5.923,0,0,0-.323-1.678,1.227,1.227,0,0,0-1.518-.828,6.745,6.745,0,0,0-1.085.329.44.44,0,0,0-.217.283c-.166.73-.26,1.479-.475,2.193a7.577,7.577,0,0,1-4.364,5.038,9.464,9.464,0,0,1-5.212.616,10.916,10.916,0,0,1-5.894-2.738l-.765-.695a1.364,1.364,0,0,0,0,.2c.173,1.41.3,2.828.533,4.229A18.723,18.723,0,0,0,52.2,22.149a.369.369,0,0,0,.4.253c.458-.015.916-.013,1.374,0a.5.5,0,1,1-.023,1c-.466,0-.931,0-1.434,0m3.514,3.971h6.951V25.414H56.031Z" transform="translate(-44.729 -0.383)"/>
    <path id="Path_186966" data-name="Path 186966" d="M69.851,13.573a11.9,11.9,0,0,1,4.555.973,5.018,5.018,0,0,1,3.061,5,9.042,9.042,0,0,1-1.348,4.6,6.53,6.53,0,0,1-4.672,3.005,9.636,9.636,0,0,1-8.537-2.666,6.4,6.4,0,0,1-.4-8.475,7.04,7.04,0,0,1,3.508-2.042,12.584,12.584,0,0,1,3.834-.4M67.579,14.6c-.645.18-1.306.315-1.931.548A5.063,5.063,0,0,0,62.3,18.873a.52.52,0,0,0,.35.7.51.51,0,0,0,.616-.436,4.186,4.186,0,0,1,2.915-3.113,13.8,13.8,0,0,1,1.471-.361.527.527,0,0,0,.462-.547.613.613,0,0,0-.54-.51" transform="translate(-56.321 -12.505)" fill="url(#linear-gradient)"/>
    <path id="Path_186967" data-name="Path 186967" d="M71.347,107.844c.5,0,.968,0,1.434,0a.5.5,0,1,0,.022-1c-.458-.012-.916-.014-1.374,0a.369.369,0,0,1-.4-.253,18.719,18.719,0,0,1-1.551-5.093c-.23-1.4-.36-2.818-.533-4.229a1.373,1.373,0,0,1,0-.2l.765.695a10.916,10.916,0,0,0,5.894,2.738,9.464,9.464,0,0,0,5.212-.616,7.577,7.577,0,0,0,4.364-5.038c.216-.714.309-1.463.475-2.193a.44.44,0,0,1,.217-.283,6.748,6.748,0,0,1,1.085-.329,1.227,1.227,0,0,1,1.517.828,5.924,5.924,0,0,1,.323,1.678,11.89,11.89,0,0,1-1.653,6.244,21.824,21.824,0,0,1-4.786,5.852.808.808,0,0,1-.489.183c-2.1.012-4.19.008-6.285.008-.5,0-.741.164-.739.5s.24.5.744.5h6.215v1H75.044c-.835,0-1.194.358-1.195,1.188,0,.575,0,1.15,0,1.725a1,1,0,0,0,1.077,1.077q3.26,0,6.519,0h.371c0,.206.014.389,0,.568a.46.46,0,0,1-.42.42,1.447,1.447,0,0,1-.263.008H72.068c-.573,0-.721-.15-.721-.732q0-2.456,0-4.912v-.346m4.624-4.243-1.813,1.272c-.321.226-.408.512-.234.763s.479.278.8.057c.632-.439,1.265-.876,1.889-1.326a.327.327,0,0,1,.457-.007c.645.471,1.3.926,1.96,1.379a.5.5,0,1,0,.573-.811c-.163-.124-.334-.237-.5-.355l-1.375-.968c.118-.087.2-.152.286-.212.5-.353,1.009-.7,1.5-1.061a.832.832,0,0,0,.288-.348.434.434,0,0,0-.189-.536.5.5,0,0,0-.6.025c-.631.441-1.271.869-1.885,1.331a.405.405,0,0,1-.579-.011c-.605-.443-1.225-.866-1.842-1.292a.5.5,0,0,0-.749.072c-.183.251-.114.529.186.748.071.052.143.1.215.152l1.611,1.129" transform="translate(-63.559 -84.83)" fill="#fff"/>
    <rect id="Rectangle_34519" data-name="Rectangle 34519" width="6.951" height="1.955" transform="translate(11.302 25.03)" fill="#fff"/>
    <path id="Path_186968" data-name="Path 186968" d="M81.572,26.819a.613.613,0,0,1,.54.51.527.527,0,0,1-.462.547,13.8,13.8,0,0,0-1.471.361,4.186,4.186,0,0,0-2.915,3.113.51.51,0,0,1-.616.436.52.52,0,0,1-.35-.7,5.063,5.063,0,0,1,3.343-3.724c.625-.233,1.286-.368,1.931-.548" transform="translate(-70.314 -24.724)"/>
    <path id="Path_186969" data-name="Path 186969" d="M133.693,213.824l-1.611-1.129c-.072-.05-.144-.1-.215-.152-.3-.219-.369-.5-.186-.748a.5.5,0,0,1,.749-.072c.617.426,1.236.85,1.842,1.292a.405.405,0,0,0,.579.011c.614-.463,1.255-.891,1.885-1.331a.5.5,0,0,1,.6-.025.434.434,0,0,1,.189.536.832.832,0,0,1-.288.348c-.5.362-1,.708-1.5,1.061-.086.06-.169.125-.286.212l1.375.968c.167.118.338.231.5.355a.5.5,0,1,1-.573.811c-.658-.453-1.315-.907-1.96-1.379a.327.327,0,0,0-.457.007c-.624.45-1.258.887-1.889,1.326-.318.221-.621.2-.8-.057s-.087-.538.234-.763l1.813-1.272" transform="translate(-121.281 -195.052)"/>
  </g>
</svg>
