<svg xmlns="http://www.w3.org/2000/svg" width="51.76" height="16.223" viewBox="0 0 51.76 16.223">
  <g id="paytm-1" transform="translate(0 0)">
    <path id="Path_181993" data-name="Path 181993" d="M1446.21,4.785a3.448,3.448,0,0,0-3.254-2.308h-.031a3.446,3.446,0,0,1-4.972,0h-.031a3.429,3.429,0,0,0-2.248.835V3.048a.508.508,0,0,0-.505-.471h-2.307a.51.51,0,0,0-.51.511V15.615a.509.509,0,0,0,.51.511h2.307a.508.508,0,0,0,.5-.441V6.692a.771.771,0,0,1,0-.09.84.84,0,0,1,.8-.773h.425a.9.9,0,0,1,.487.189.848.848,0,0,1,.313.674l.009,8.949a.511.511,0,0,0,.51.512h2.307a.51.51,0,0,0,.507-.487V6.681a.848.848,0,0,1,.376-.721.939.939,0,0,1,.424-.142h.425a.844.844,0,0,1,.8.863l.009,8.937a.51.51,0,0,0,.51.511h2.307a.51.51,0,0,0,.51-.511V6.006A3.2,3.2,0,0,0,1446.21,4.785ZM1430.593,2.61h-1.319V.465a.459.459,0,0,0-.553-.456c-1.463.4-1.17,2.427-3.84,2.6h-.259a.535.535,0,0,0-.112.013h0a.509.509,0,0,0-.4.5V5.427a.511.511,0,0,0,.511.51h1.392l0,9.782a.5.5,0,0,0,.5.5h2.281a.5.5,0,0,0,.5-.5V5.936h1.292a.511.511,0,0,0,.51-.51V3.12a.51.51,0,0,0-.51-.51Z" transform="translate(-1394.625 0.001)" fill="#54c1f0"/>
    <path id="Path_181994" data-name="Path 181994" d="M27.668,126.02H25.362a.51.51,0,0,0-.509.51v4.77a.54.54,0,0,1-.54.532h-.966a.54.54,0,0,1-.541-.54L22.8,126.53a.511.511,0,0,0-.51-.51H19.98a.51.51,0,0,0-.51.51v5.228a3.274,3.274,0,0,0,3.4,3.4s1.491,0,1.536.009a.537.537,0,0,1,.007,1.067l-.039.008L21,136.255a.51.51,0,0,0-.51.51v2.306a.509.509,0,0,0,.51.51h3.772a3.273,3.273,0,0,0,3.4-3.4v-9.649a.509.509,0,0,0-.51-.51Zm-22.126,0H.5a.5.5,0,0,0-.5.5v2.26s0,.009,0,.013,0,.022,0,.031v10.23a.5.5,0,0,0,.467.511h2.35a.51.51,0,0,0,.51-.51l.009-3.506H5.543a2.994,2.994,0,0,0,3.134-3.136V129.16a3,3,0,0,0-3.134-3.14Zm-.2,5.651a.541.541,0,0,1-.54.541H3.335v-2.853H4.8a.54.54,0,0,1,.54.54Zm9.2-5.638h-3.2a.5.5,0,0,0-.512.478v.9c0,.005,0,.012,0,.017s0,.013,0,.019v1.229a.526.526,0,0,0,.542.507h3.048a.53.53,0,0,1,.459.488v.3a.51.51,0,0,1-.446.474H12.926a3.2,3.2,0,0,0-3.437,3.206v2.682a3.023,3.023,0,0,0,3.223,3.187h4.183a1.317,1.317,0,0,0,1.36-1.269V129.5C18.253,127.373,17.16,126.033,14.544,126.033Zm.367,9.99a.531.531,0,0,1-.009.085.534.534,0,0,1-.535.423h-.96a.528.528,0,0,1-.544-.508v-.435c0-.005,0-.011,0-.016v-1.523a.525.525,0,0,1,.542-.5h.96a.526.526,0,0,1,.544.508v1.972Z" transform="translate(0 -123.41)" fill="#233266"/>
  </g>
</svg>
