<svg xmlns="http://www.w3.org/2000/svg" width="15.18" height="15.206" viewBox="0 0 15.18 15.206">
  <g id="Group_103610" data-name="Group 103610" transform="translate(-45.236 -443.846)">
    <g id="Ellipse_2621" data-name="Ellipse 2621" transform="translate(46.236 444.846)" fill="#131414" stroke="#707070" stroke-width="1">
      <circle cx="6" cy="6" r="6" stroke="none"/>
      <circle cx="6" cy="6" r="5.5" fill="none"/>
    </g>
    <g id="Ellipse_2611" data-name="Ellipse 2611" transform="translate(46.236 444.503)" fill="#131414" stroke="#707070" stroke-width="1">
      <circle cx="7" cy="7" r="7" stroke="none"/>
      <circle cx="7" cy="7" r="6.5" fill="none"/>
    </g>
    <path id="Path_183743" data-name="Path 183743" d="M15.166,7.285a7.465,7.465,0,0,0-4.026-6.4A7.026,7.026,0,0,0,8.148.024.815.815,0,0,1,8.033,0h-.89c-.291.052-.588.063-.878.117A7.5,7.5,0,0,0,.89,4.035a7.175,7.175,0,0,0-.865,3A1.014,1.014,0,0,1,0,7.156v.891c.05.291.063.588.116.878a7.515,7.515,0,0,0,3.909,5.387,7.133,7.133,0,0,0,3,.869.821.821,0,0,1,.115.024h.89c.291-.052.588-.063.878-.117a7.49,7.49,0,0,0,5.376-3.92,7.066,7.066,0,0,0,.878-3.886M10.88,6.1q-.935.93-1.866,1.871L7.045,9.94a.615.615,0,0,1-1,0q-.89-.9-1.781-1.79a.592.592,0,0,1-.028-.872.584.584,0,0,1,.839.008c.247.235.483.481.725.722.213.213.431.423.637.643.085.092.132.085.218,0q1.688-1.7,3.382-3.394a.627.627,0,0,1,.679-.206.594.594,0,0,1,.4.552.672.672,0,0,1-.236.492" transform="translate(45.236 443.846)" fill="#fff"/>
  </g>
</svg>
