<svg xmlns="http://www.w3.org/2000/svg" width="14" height="14" viewBox="0 0 14 14">
    <g id="vuesax_outline_sms" data-name="vuesax/outline/sms" transform="translate(-556 -252)">
        <g id="sms" transform="translate(556 252)">
            <path id="Vector" d="M9.188,10.792H3.354A3.055,3.055,0,0,1,0,7.437V3.354A3.055,3.055,0,0,1,3.354,0H9.188a3.055,3.055,0,0,1,3.354,3.354V7.437A3.055,3.055,0,0,1,9.188,10.792ZM3.354.875A2.179,2.179,0,0,0,.875,3.354V7.437A2.179,2.179,0,0,0,3.354,9.917H9.188a2.179,2.179,0,0,0,2.479-2.479V3.354A2.179,2.179,0,0,0,9.188.875Z" transform="translate(0.729 1.604)" fill="#131414"/>
            <path id="Vector-2" data-name="Vector" d="M3.356,2.7a2.168,2.168,0,0,1-1.365-.461L.165.779A.436.436,0,1,1,.707.1L2.533,1.555a1.392,1.392,0,0,0,1.639,0L6,.1a.431.431,0,0,1,.613.07.431.431,0,0,1-.07.613L4.715,2.238A2.141,2.141,0,0,1,3.356,2.7Z" transform="translate(3.644 4.809)" fill="#131414"/>
            <path id="Vector-3" data-name="Vector" d="M0,0H14V14H0Z" fill="none" opacity="0"/>
        </g>
    </g>
</svg>