<svg xmlns="http://www.w3.org/2000/svg" xmlns:xlink="http://www.w3.org/1999/xlink" width="46" height="46" viewBox="0 0 46 46">
  <defs>
    <linearGradient id="linear-gradient" x1="0.5" x2="0.5" y2="1" gradientUnits="objectBoundingBox">
      <stop offset="0" stop-color="#fec34d"/>
      <stop offset="0.263" stop-color="#f88c83"/>
      <stop offset="1" stop-color="#f048c6"/>
    </linearGradient>
    <linearGradient id="linear-gradient-2" x1="0.5" y1="0.017" x2="0.5" y2="1.846" gradientUnits="objectBoundingBox">
      <stop offset="0" stop-color="#fec34d"/>
      <stop offset="1" stop-color="#f048c6"/>
    </linearGradient>
    <linearGradient id="linear-gradient-3" x1="0.5" y1="-0.05" x2="0.5" y2="0.946" xlink:href="#linear-gradient-2"/>
  </defs>
  <g id="Group_103153" data-name="Group 103153" transform="translate(-16145 3917)">
    <circle id="Ellipse_2603" data-name="Ellipse 2603" cx="23" cy="23" r="23" transform="translate(16145 -3917)" fill="url(#linear-gradient)"/>
    <circle id="Ellipse_2604" data-name="Ellipse 2604" cx="21" cy="21" r="21" transform="translate(16147 -3915)" fill="#fff"/>
    <g id="Group_103152" data-name="Group 103152" transform="translate(16144.48 -3917.327)">
      <g id="Group_102277" data-name="Group 102277" transform="translate(15.386 11.567)">
        <g id="Group_103138" data-name="Group 103138">
          <path id="Path_186762" data-name="Path 186762" d="M11.765,0a4.12,4.12,0,0,1-.247.828A8.091,8.091,0,0,0,.733,11.372c-.381.134-.647.209-.733.233a12.249,12.249,0,0,0,6.427.093l.008,0a2.3,2.3,0,0,0,1.647-1.3c.369-1.01-.2-1.809-1.231-2.721l-.006,0A8.906,8.906,0,0,1,3.7,3.362l0,0c1.834,2.111,4.059,3.279,5.8,3.045A2.813,2.813,0,0,0,10.649,6c1.541-.973,1.9-3.359,1.116-6ZM9.357,5.066a1.356,1.356,0,1,1,1.171-1.519A1.356,1.356,0,0,1,9.357,5.066Z" fill="url(#linear-gradient-2)"/>
          <path id="Path_186763" data-name="Path 186763" d="M44.744,41.946h0L37.875,53h0L31.02,41.975a9.381,9.381,0,0,0,4.215.993,9.167,9.167,0,0,0,4.042-.908,14.37,14.37,0,0,1-3.225,6.518,14.439,14.439,0,0,0,6.07-17.788,8.085,8.085,0,0,1,2.623,11.156Z" transform="translate(-29.7 -29.48)" fill="url(#linear-gradient-3)"/>
        </g>
      </g>
    </g>
  </g>
</svg>
