<svg id="Component_69_84" data-name="Component 69 – 84" xmlns="http://www.w3.org/2000/svg" xmlns:xlink="http://www.w3.org/1999/xlink" width="24" height="24" viewBox="0 0 24 24">
    <defs>
        <clipPath id="clip-path">
            <rect id="Rectangle_25778" data-name="Rectangle 25778" width="24" height="24" transform="translate(20 203)" fill="#fff"/>
        </clipPath>
    </defs>
    <g id="Mask_Group_794" data-name="Mask Group 794" transform="translate(-20 -203)" clip-path="url(#clip-path)">
        <g id="Group_92452" data-name="Group 92452" transform="translate(-34 -107)">
            <path id="Path_180947" data-name="Path 180947" d="M126.653,469.026l-.695.283h0Zm-.347-5.629.724.2Zm15.388,0-.724.2Zm-.347,5.629.7.283h0Zm-5.311,3.816-.115-.741Zm-4.072,0,.115-.741Zm-1.308-13.24-.149-.735Zm6.688,0,.149-.735h0Zm-6.129,13.123-.116.741Zm-4.469-3.47.695-.283h0Zm10.039,3.47.116.741Zm4.469-3.47-.695-.283h0Zm-3.634-9.6-.15.735h0Zm-7.24,0,.15.735Zm-1.486-.227a.75.75,0,0,0,1.5,0Zm.75-.3h0Zm8.712,0h0Zm-.75.3a.75.75,0,0,0,1.5,0Zm-4.754-4.29-.182-.727h0Zm2.3,0,.182-.727h0Zm-4.618,5.252.276-.056-.3-1.47-.276.056Zm6.664-.056.276.056.3-1.47-.276-.056Zm-.525,11.647-.748.117.231,1.482.749-.117Zm-4.59.117-.748-.117-.232,1.482.749.117Zm8.573-3.357-.093.228,1.39.565.093-.228Zm-13.211.228-.093-.228-1.39.565.093.228Zm-.093-.228a8.057,8.057,0,0,1-.318-5.151l-1.448-.392a9.565,9.565,0,0,0,.376,6.108Zm13.622-5.151a8.057,8.057,0,0,1-.318,5.151l1.39.565a9.565,9.565,0,0,0,.376-6.108Zm-5.049,8.508a12.439,12.439,0,0,1-3.842,0l-.231,1.482a13.929,13.929,0,0,0,4.3,0Zm-5.115-11.764a16.051,16.051,0,0,1,6.388,0l.3-1.47a17.555,17.555,0,0,0-6.986,0Zm.525,11.647a5.006,5.006,0,0,1-3.89-3.012l-1.39.565a6.507,6.507,0,0,0,5.048,3.929Zm5.57,1.482a6.507,6.507,0,0,0,5.048-3.929l-1.39-.565a5.006,5.006,0,0,1-3.89,3.012Zm.569-13.073a4.518,4.518,0,0,1,3.5,3.2l1.448-.392a6.019,6.019,0,0,0-4.649-4.278Zm-7.239-1.47a6.019,6.019,0,0,0-4.649,4.278l1.448.392a4.518,4.518,0,0,1,3.5-3.2Zm.163.508v-.3h-1.5v.3Zm7.212-.3v.3h1.5v-.3Zm-4.572-3.259a3.972,3.972,0,0,1,1.932,0l.364-1.455a5.467,5.467,0,0,0-2.66,0Zm6.072,3.259a4.9,4.9,0,0,0-3.776-4.714l-.364,1.455a3.4,3.4,0,0,1,2.64,3.259Zm-8.712,0a3.4,3.4,0,0,1,2.64-3.259l-.364-1.455a4.9,4.9,0,0,0-3.776,4.714Z" transform="translate(-68 -142)" fill="#131414"/>
            <path id="Path_180948" data-name="Path 180948" d="M134,465.5v2" transform="translate(-68 -142)" fill="none" stroke="#131414" stroke-linecap="round" stroke-width="1.5"/>
        </g>
    </g>
</svg>