<svg xmlns="http://www.w3.org/2000/svg" width="22.834" height="22.834" viewBox="0 0 22.834 22.834">
  <g id="phonepe-1_2_" data-name="phonepe-1 (2)" transform="translate(0 0)">
    <ellipse id="Ellipse_1061" data-name="Ellipse 1061" cx="11.417" cy="11.417" rx="11.417" ry="11.417" transform="translate(0 0.001)" fill="#5f259f"/>
    <path id="Path_181992" data-name="Path 181992" d="M182.053,99.3a.844.844,0,0,0-.829-.829h-1.531l-3.508-4.018a1.292,1.292,0,0,0-1.339-.383l-1.212.383a.282.282,0,0,0-.127.446l3.827,3.636h-5.8a.3.3,0,0,0-.319.319v.638a.844.844,0,0,0,.829.829h.893v3.062c0,2.3,1.212,3.636,3.253,3.636a4.417,4.417,0,0,0,1.786-.319v2.041a1.007,1.007,0,0,0,1.02,1.02h.893a.412.412,0,0,0,.383-.383v-9.121h1.467a.3.3,0,0,0,.319-.319Zm-4.082,5.485a3.04,3.04,0,0,1-1.276.255c-1.02,0-1.531-.51-1.531-1.658v-3.062h2.806Z" transform="translate(-165.454 -90.859)" fill="#fff"/>
  </g>
</svg>
