<svg id="Component_248_8" data-name="Component 248 – 8" xmlns="http://www.w3.org/2000/svg" xmlns:xlink="http://www.w3.org/1999/xlink" width="20.38" height="29.468" viewBox="0 0 20.38 29.468">
  <defs>
    <linearGradient id="linear-gradient" x1="0.5" y1="0.017" x2="0.5" y2="1.846" gradientUnits="objectBoundingBox">
      <stop offset="0" stop-color="#fec34d"/>
      <stop offset="1" stop-color="#f048c6"/>
    </linearGradient>
    <linearGradient id="linear-gradient-2" x1="0.5" y1="-0.05" x2="0.5" y2="0.946" xlink:href="#linear-gradient"/>
  </defs>
  <g id="Group_102277" data-name="Group 102277" transform="translate(-15.386 -11.567)">
    <g id="Group_102226" data-name="Group 102226" transform="translate(15.386 11.567)">
      <path id="Path_186762" data-name="Path 186762" d="M14.741,0a5.162,5.162,0,0,1-.31,1.038A10.137,10.137,0,0,0,.919,14.249c-.477.167-.811.261-.919.292a15.347,15.347,0,0,0,8.052.116l.01,0a2.879,2.879,0,0,0,2.063-1.628c.463-1.266-.245-2.266-1.542-3.41l-.007-.005c-1.758-1.535-3.308-3.1-3.936-5.4l.005.005c2.3,2.645,5.086,4.109,7.268,3.815a3.525,3.525,0,0,0,1.429-.51C15.273,6.3,15.719,3.314,14.741,0ZM11.724,6.348a1.7,1.7,0,1,1,1.468-1.9A1.7,1.7,0,0,1,11.724,6.348Z" fill="url(#linear-gradient)"/>
      <path id="Path_186763" data-name="Path 186763" d="M48.216,44.768h0L39.608,58.616h0L31.02,44.8A11.754,11.754,0,0,0,36.3,46.048a11.486,11.486,0,0,0,5.064-1.137,18,18,0,0,1-4.041,8.167A18.091,18.091,0,0,0,44.93,30.79a10.13,10.13,0,0,1,3.287,13.978Z" transform="translate(-29.366 -29.148)" fill="url(#linear-gradient-2)"/>
    </g>
  </g>
</svg>
