<svg id="Group_93673" data-name="Group 93673" xmlns="http://www.w3.org/2000/svg" width="22.834" height="22.834" viewBox="0 0 22.834 22.834">
  <ellipse id="Ellipse_1062" data-name="Ellipse 1062" cx="11.417" cy="11.417" rx="11.417" ry="11.417" transform="translate(0 0)" fill="#f57450"/>
  <g id="fc-logo-1_2_" data-name="fc-logo-1 (2)" transform="translate(7.292 4.061)">
    <g id="Group_93672" data-name="Group 93672" transform="translate(0 0)">
      <path id="Path_181996" data-name="Path 181996" d="M38.659,31.03a3.286,3.286,0,0,1,1.1.164l.426-1.926a5.673,5.673,0,0,0-1.454-.143c-2.115,0-3.387.877-3.912,2.8-.311,1.147-.315,1.6-1.136,1.625h-.72l-.248,1.825h1.8l-2.349,4.618H33.9L31.94,43.834l5.341-5.548h-2.01l3.436-3.426.245-1.328h-2.1l.1-.773c.164-1.209.7-1.748,1.7-1.748" transform="translate(-31.94 -29.122)" fill="#fff" fill-rule="evenodd"/>
    </g>
  </g>
</svg>
