<svg id="Group_103014" data-name="Group 103014" xmlns="http://www.w3.org/2000/svg" xmlns:xlink="http://www.w3.org/1999/xlink" width="17.56" height="17.555" viewBox="0 0 17.56 17.555">
  <defs>
    <linearGradient id="linear-gradient" x1="0.5" x2="0.5" y2="1" gradientUnits="objectBoundingBox">
      <stop offset="0" stop-color="#fec34d"/>
      <stop offset="1" stop-color="#f048c6"/>
    </linearGradient>
    <clipPath id="clip-path">
      <rect id="Rectangle_34449" data-name="Rectangle 34449" width="17.56" height="17.555" fill="url(#linear-gradient)"/>
    </clipPath>
  </defs>
  <g id="Group_103017" data-name="Group 103017" clip-path="url(#clip-path)">
    <path id="Path_186840" data-name="Path 186840" d="M8.23,0h1.1c.3.039.6.066.9.119A8.6,8.6,0,0,1,15.756,3.47a8.51,8.51,0,0,1,1.64,6.951,8.443,8.443,0,0,1-2.972,5.066,8.552,8.552,0,0,1-6.83,1.986A8.445,8.445,0,0,1,2.98,15.357,8.643,8.643,0,0,1,.137,10.308C.078,9.984.045,9.654,0,9.327V8.23c.038-.293.067-.589.117-.88A8.638,8.638,0,0,1,2.529,2.626,8.6,8.6,0,0,1,7.267.135C7.586.079,7.909.044,8.23,0M5.523,8.053a.953.953,0,0,0-.152.027.728.728,0,0,0-.288,1.236c.752.759,1.51,1.512,2.265,2.267a.751.751,0,0,0,1.216,0l4.568-4.568a2.045,2.045,0,0,0,.142-.149.727.727,0,0,0-.434-1.182.742.742,0,0,0-.693.247Q10.124,7.957,8.1,9.981c-.111.112-.167.13-.288.006-.554-.569-1.12-1.125-1.68-1.688a.769.769,0,0,0-.612-.247" fill="url(#linear-gradient)"/>
  </g>
</svg>
