<svg xmlns="http://www.w3.org/2000/svg" xmlns:xlink="http://www.w3.org/1999/xlink" width="12" height="12" viewBox="0 0 12 12">
  <defs>
    <clipPath id="clip-path">
      <rect id="Rectangle_8198" data-name="Rectangle 8198" width="12" height="12" fill="#fff"/>
    </clipPath>
  </defs>
  <g id="Mask_Group_20" data-name="Mask Group 20" clip-path="url(#clip-path)">
    <g id="Star" transform="translate(1 1)">
      <path id="Star-2" data-name="Star" d="M7.751,9.959a.341.341,0,0,1-.176-.045L5,8.562,2.743,9.779A.761.761,0,0,1,1.7,9.459a.82.82,0,0,1-.079-.5l.44-2.6L.226,4.5a.8.8,0,0,1,0-1.114.746.746,0,0,1,.44-.225l2.521-.383L4.31.442a.758.758,0,0,1,1.377,0L6.813,2.786l2.53.388a.763.763,0,0,1,.508.312A.825.825,0,0,1,9.77,4.526L7.94,6.366l.255,1.4a.391.391,0,0,1-.312.451.379.379,0,0,1-.44-.307l-.26-1.4a.81.81,0,0,1,.22-.7L9.238,3.954l-2.53-.392a.76.76,0,0,1-.576-.451L5,.775,3.865,3.147a.76.76,0,0,1-.576.451L.768,3.981,2.589,5.829a.8.8,0,0,1,.22.694l-.44,2.6L4.631,7.908a.737.737,0,0,1,.722,0L7.918,9.261a.4.4,0,0,1,.194.44.385.385,0,0,1-.37.3Z" transform="translate(0)" fill="#fff"/>
    </g>
  </g>
</svg>
