<svg xmlns="http://www.w3.org/2000/svg" xmlns:xlink="http://www.w3.org/1999/xlink" width="112.11" height="110.865" viewBox="0 0 112.11 110.865">
  <defs>
    <linearGradient id="linear-gradient" x1="0.5" y1="0.017" x2="0.5" y2="1.846" gradientUnits="objectBoundingBox">
      <stop offset="0" stop-color="#fec34d"/>
      <stop offset="1" stop-color="#f048c6"/>
    </linearGradient>
    <linearGradient id="linear-gradient-2" x1="0.5" y1="-0.05" x2="0.5" y2="0.946" xlink:href="#linear-gradient"/>
  </defs>
  <g id="Group_103515" data-name="Group 103515" transform="translate(-125.049 -334.086)">
    <g id="Group_102188" data-name="Group 102188" transform="translate(125.049 415.428)">
      <g id="Group_102184" data-name="Group 102184" transform="translate(0)">
        <path id="Path_186580" data-name="Path 186580" d="M474.134,154.392v16.2h-3.611V168.5a5.873,5.873,0,0,1-2.321,1.729,7.842,7.842,0,0,1-3.049.576,8.6,8.6,0,0,1-4.233-1.031,7.341,7.341,0,0,1-2.913-2.913,8.836,8.836,0,0,1-1.047-4.369,8.748,8.748,0,0,1,1.047-4.354,7.369,7.369,0,0,1,2.913-2.9,8.6,8.6,0,0,1,4.233-1.031,7.506,7.506,0,0,1,2.9.546,6.378,6.378,0,0,1,2.291,1.608v-1.972Zm-5.1,11.772a5.618,5.618,0,0,0,0-7.343,4.636,4.636,0,0,0-3.459-1.4,4.587,4.587,0,0,0-3.444,1.4,5.668,5.668,0,0,0,0,7.343,4.581,4.581,0,0,0,3.444,1.4A4.633,4.633,0,0,0,469.037,166.164Z" transform="translate(-456.96 -147.17)" fill="#131414"/>
        <path id="Path_186581" data-name="Path 186581" d="M672.368,169.745a7.794,7.794,0,0,1-3.125-2.958,8.744,8.744,0,0,1,0-8.572,7.856,7.856,0,0,1,3.11-2.943,9.469,9.469,0,0,1,4.536-1.062,8.744,8.744,0,0,1,4.2.971,6.3,6.3,0,0,1,2.715,2.791l-2.913,1.7a4.637,4.637,0,0,0-1.744-1.684,5.091,5.091,0,0,0-5.81.819,5.588,5.588,0,0,0-.016,7.372,5.115,5.115,0,0,0,5.826.819,4.624,4.624,0,0,0,1.744-1.684l2.913,1.7a6.565,6.565,0,0,1-2.746,2.806,8.567,8.567,0,0,1-4.172.986,9.493,9.493,0,0,1-4.521-1.062Z" transform="translate(-648.519 -147.17)" fill="#131414"/>
        <path id="Path_186582" data-name="Path 186582" d="M864.954,136.5a4.467,4.467,0,0,1-1.624.819,7.314,7.314,0,0,1-2.018.273,5.726,5.726,0,0,1-4.126-1.4,5.371,5.371,0,0,1-1.456-4.066V117.6h3.793v3.7h4.339v3.035h-4.339v7.707a2.522,2.522,0,0,0,.591,1.805,2.171,2.171,0,0,0,1.653.622,3.334,3.334,0,0,0,2.124-.667l1.062,2.7Z" transform="translate(-818.713 -113.958)" fill="#131414"/>
        <path id="Path_186583" data-name="Path 186583" d="M977.368,82.27a2.237,2.237,0,0,1,0-3.247,2.438,2.438,0,0,1,1.729-.653,2.507,2.507,0,0,1,1.729.622,2.006,2.006,0,0,1,.7,1.562,2.288,2.288,0,0,1-.682,1.684,2.364,2.364,0,0,1-1.744.683,2.4,2.4,0,0,1-1.729-.653Zm-.182,3.322h3.793v16.2h-3.793Z" transform="translate(-928.427 -78.37)" fill="#131414"/>
        <path id="Path_186584" data-name="Path 186584" d="M1072.973,88.19V110.7h-3.641V108.61a5.874,5.874,0,0,1-2.321,1.729,7.842,7.842,0,0,1-3.049.576,8.536,8.536,0,0,1-4.2-1.031,7.407,7.407,0,0,1-2.928-2.928,9.423,9.423,0,0,1,0-8.692,7.441,7.441,0,0,1,2.928-2.913,8.536,8.536,0,0,1,4.2-1.031,7.7,7.7,0,0,1,2.943.546,5.914,5.914,0,0,1,2.275,1.638V88.19Zm-6.1,18.857a4.5,4.5,0,0,0,1.73-1.775,5.915,5.915,0,0,0,0-5.339,4.5,4.5,0,0,0-1.73-1.775,5.168,5.168,0,0,0-4.916,0,4.5,4.5,0,0,0-1.729,1.775,5.914,5.914,0,0,0,0,5.339,4.5,4.5,0,0,0,1.729,1.775,5.168,5.168,0,0,0,4.916,0Z" transform="translate(-1000.184 -87.278)" fill="#131414"/>
        <path id="Path_186585" data-name="Path 186585" d="M1284.4,154.392v16.2h-3.611V168.5a5.872,5.872,0,0,1-2.321,1.729,7.842,7.842,0,0,1-3.049.576,8.6,8.6,0,0,1-4.233-1.031,7.34,7.34,0,0,1-2.913-2.913,8.834,8.834,0,0,1-1.047-4.369,8.746,8.746,0,0,1,1.047-4.354,7.368,7.368,0,0,1,2.913-2.9,8.6,8.6,0,0,1,4.233-1.031,7.506,7.506,0,0,1,2.9.546,6.379,6.379,0,0,1,2.291,1.608v-1.972Zm-5.1,11.772a5.619,5.619,0,0,0,0-7.343,4.636,4.636,0,0,0-3.459-1.4,4.586,4.586,0,0,0-3.444,1.4,5.668,5.668,0,0,0,0,7.343,4.58,4.58,0,0,0,3.444,1.4A4.633,4.633,0,0,0,1279.307,166.164Z" transform="translate(-1192.015 -147.17)" fill="#131414"/>
        <path id="Path_186586" data-name="Path 186586" d="M1487.084,156.17l-7.585,17.507a8.158,8.158,0,0,1-2.579,3.717,6.182,6.182,0,0,1-3.671,1.077,7.541,7.541,0,0,1-2.4-.395,5.3,5.3,0,0,1-1.942-1.093l1.517-2.791a4.153,4.153,0,0,0,1.289.82,3.942,3.942,0,0,0,1.5.3,2.579,2.579,0,0,0,1.653-.516,4.569,4.569,0,0,0,1.2-1.729l.273-.637-7.07-16.262h3.944l5.1,11.985,5.128-11.985h3.641Z" transform="translate(-1374.973 -148.948)" fill="#131414"/>
      </g>
    </g>
    <g id="symbol" transform="translate(151.643 334.086)">
      <path id="Path_186786" data-name="Path 186786" d="M36.283,0a12.859,12.859,0,0,1-.762,2.555A24.958,24.958,0,0,0,2.253,35.081c-1.174.412-2,.643-2.263.718,3.815,1.29,13.5,2.46,19.824.286a.076.076,0,0,0,.024-.007c2.555-.741,4.379-2.093,5.08-4.008,1.14-3.117-.6-5.58-3.8-8.394a.066.066,0,0,1-.017-.014c-4.328-3.78-8.146-7.626-9.691-13.291l.014.014C17.085,16.9,23.948,20.5,29.321,19.777a8.663,8.663,0,0,0,3.518-1.256c4.753-3,5.853-10.361,3.444-18.52ZM28.856,15.628a4.184,4.184,0,1,1,3.614-4.685,4.185,4.185,0,0,1-3.614,4.685Z" transform="translate(0.01)" fill="url(#linear-gradient)"/>
      <path id="Path_186787" data-name="Path 186787" d="M84.465,76.224h0L63.274,110.318h0l-21.141-34a28.948,28.948,0,0,0,13,3.063,28.258,28.258,0,0,0,12.467-2.8,44.322,44.322,0,0,1-9.95,20.106A44.54,44.54,0,0,0,76.374,41.81a24.942,24.942,0,0,1,8.092,34.414Z" transform="translate(-38.056 -37.768)" fill="url(#linear-gradient-2)"/>
    </g>
  </g>
</svg>
