<svg xmlns="http://www.w3.org/2000/svg" width="13.844" height="13.844" viewBox="0 0 13.844 13.844">
  <g id="vuesax_outline_clock" data-name="vuesax/outline/clock" transform="translate(-172 -188)">
    <g id="clock" transform="translate(172 188)">
      <g id="Vector" transform="translate(0.721 0.721)" fill="#fff">
        <path d="M6.2,12.4a6.2,6.2,0,1,1,6.2-6.2A6.206,6.206,0,0,1,6.2,12.4ZM6.2.865A5.336,5.336,0,1,0,11.536,6.2,5.342,5.342,0,0,0,6.2.865Z" stroke="none"/>
        <path d="M 6.200846672058105 12.40169620513916 C 2.78028678894043 12.40169620513916 -3.327941840325366e-06 9.621406555175781 -3.327941840325366e-06 6.200846672058105 C -3.327941840325366e-06 2.78028678894043 2.78028678894043 -3.327941840325366e-06 6.200846672058105 -3.327941840325366e-06 C 9.621406555175781 -3.327941840325366e-06 12.40169620513916 2.78028678894043 12.40169620513916 6.200846672058105 C 12.40169620513916 9.621406555175781 9.621406555175781 12.40169620513916 6.200846672058105 12.40169620513916 Z M 6.200846672058105 0.8652366995811462 C 3.25904655456543 0.8652366995811462 0.8652366995811462 3.25904655456543 0.8652366995811462 6.200846672058105 C 0.8652366995811462 9.142646789550781 3.25904655456543 11.53645706176758 6.200846672058105 11.53645706176758 C 9.142646789550781 11.53645706176758 11.53645706176758 9.142646789550781 11.53645706176758 6.200846672058105 C 11.53645706176758 3.25904655456543 9.142646789550781 0.8652366995811462 6.200846672058105 0.8652366995811462 Z" stroke="none" fill="#131414"/>
      </g>
      <g id="Vector-2" data-name="Vector" transform="translate(6.282 3.899)" fill="#fff">
        <path d="M2.78,5.289a.386.386,0,0,1-.219-.063L.773,4.159A1.7,1.7,0,0,1,0,2.8V.433A.436.436,0,0,1,.433,0,.436.436,0,0,1,.865.433V2.8a.852.852,0,0,0,.352.617L3.005,4.482a.432.432,0,0,1,.15.594A.444.444,0,0,1,2.78,5.289Z" stroke="none"/>
        <path d="M 2.780287265777588 5.289463043212891 C 2.705297231674194 5.289463043212891 2.630307197570801 5.272163391113281 2.561097383499146 5.22601318359375 L 0.7729472517967224 4.15889310836792 C 0.3287872672080994 3.893553256988525 -2.724342266446911e-06 3.310963153839111 -2.724342266446911e-06 2.797593116760254 L -2.724342266446911e-06 0.4326131939888 C -2.724342266446911e-06 0.1961231976747513 0.1961172819137573 3.190536517649889e-06 0.4326172769069672 3.190536517649889e-06 C 0.669117271900177 3.190536517649889e-06 0.865237295627594 0.1961231976747513 0.865237295627594 0.4326131939888 L 0.865237295627594 2.797593116760254 C 0.865237295627594 3.005243301391602 1.038277268409729 3.310963153839111 1.217097282409668 3.414793252944946 L 3.005247354507446 4.481913089752197 C 3.212907314300537 4.603043079376221 3.276357173919678 4.868383407592773 3.155217170715332 5.076043128967285 C 3.068697214126587 5.214483261108398 2.924487352371216 5.289463043212891 2.780287265777588 5.289463043212891 Z" stroke="none" fill="#131414"/>
      </g>
      <path id="Vector-3" data-name="Vector" d="M0,0H13.844V13.844H0Z" fill="none" opacity="0"/>
    </g>
  </g>
</svg>
