<svg xmlns="http://www.w3.org/2000/svg" width="24" height="24" viewBox="0 0 24 24">
  <g id="Group_101328" data-name="Group 101328" transform="translate(-176 -725)">
    <g id="vuesax_twotone_calendar-2" data-name="vuesax/twotone/calendar-2" transform="translate(4 482)">
      <g id="calendar-2">
        <path id="Vector" d="M0,0V3" transform="translate(180 245)" fill="none" stroke="#131414" stroke-linecap="round" stroke-linejoin="round" stroke-width="1.5"/>
        <path id="Vector-2" data-name="Vector" d="M0,0V3" transform="translate(188 245)" fill="none" stroke="#131414" stroke-linecap="round" stroke-linejoin="round" stroke-width="1.5"/>
        <path id="Vector-3" data-name="Vector" d="M0,0H17" transform="translate(175.5 252.09)" fill="none" stroke="#131414" stroke-linecap="round" stroke-linejoin="round" stroke-width="1.5"/>
        <path id="Vector-4" data-name="Vector" d="M18,5v8.5c0,3-1.5,5-5,5H5c-3.5,0-5-2-5-5V5C0,2,1.5,0,5,0h8C16.5,0,18,2,18,5Z" transform="translate(175 246.5)" fill="none" stroke="#131414" stroke-linecap="round" stroke-linejoin="round" stroke-width="1.5"/>
        <path id="Vector-5" data-name="Vector" d="M0,0H24V24H0Z" transform="translate(172 243)" fill="none" opacity="0"/>
        <path id="Vector-6" data-name="Vector" d="M.495.5H.5" transform="translate(183.501 256.2)" fill="none" stroke="#f048c6" stroke-linecap="round" stroke-linejoin="round" stroke-width="2"/>
        <path id="Vector-7" data-name="Vector" d="M.495.5H.5" transform="translate(179.8 256.2)" fill="none" stroke="#f048c6" stroke-linecap="round" stroke-linejoin="round" stroke-width="2"/>
        <path id="Vector-8" data-name="Vector" d="M0,0H.009" transform="translate(180.294 259.7)" fill="none" stroke="#f048c6" stroke-linecap="round" stroke-linejoin="round" stroke-width="2"/>
      </g>
    </g>
  </g>
</svg>
