<svg id="vuesax_twotone_mouse" data-name="vuesax/twotone/mouse" xmlns="http://www.w3.org/2000/svg" width="24" height="24" viewBox="0 0 24 24">
  <g id="mouse">
    <path id="Vector" d="M8.394,5.084l-1.73.58a1.588,1.588,0,0,0-1.01,1.01L5.074,8.4a1.6,1.6,0,0,1-3.05-.03L.074,2.094a1.605,1.605,0,0,1,2-2.02l6.29,1.95A1.608,1.608,0,0,1,8.394,5.084Z" transform="translate(7.756 7.746)" fill="none" stroke="#b5b5b5" stroke-linecap="round" stroke-linejoin="round" stroke-width="1.5"/>
    <path id="Vector-2" data-name="Vector" d="M20,10A10,10,0,1,1,10,0,10,10,0,0,1,20,10Z" transform="translate(2 2)" fill="none" stroke="#b5b5b5" stroke-linecap="round" stroke-linejoin="round" stroke-width="1.5"/>
    <path id="Vector-3" data-name="Vector" d="M0,0H24V24H0Z" fill="none" opacity="0"/>
  </g>
</svg>
