<svg id="Group_103203" data-name="Group 103203" xmlns="http://www.w3.org/2000/svg" xmlns:xlink="http://www.w3.org/1999/xlink" width="30" height="30" viewBox="0 0 30 30">
  <defs>
    <clipPath id="clip-path">
      <rect id="Rectangle_34523" data-name="Rectangle 34523" width="30" height="30" fill="none"/>
    </clipPath>
    <linearGradient id="linear-gradient" x1="0.5" x2="0.5" y2="1" gradientUnits="objectBoundingBox">
      <stop offset="0" stop-color="#fec34d"/>
      <stop offset="0.263" stop-color="#f88c83"/>
      <stop offset="1" stop-color="#f048c6"/>
    </linearGradient>
  </defs>
  <g id="Group_103203-2" data-name="Group 103203" clip-path="url(#clip-path)">
    <path id="Path_186971" data-name="Path 186971" d="M12.09,21.446v9.825c.185.058.371.1.549.173A2.819,2.819,0,0,1,14.42,34c.022.942-.026.992-.966.992H7.578c-.5,0-.621-.147-.644-.646a2.838,2.838,0,0,1,1.818-2.913c.163-.061.332-.1.511-.159V15.928a4.244,4.244,0,0,1-.966-.551,4.12,4.12,0,0,1-.544-.966,1.572,1.572,0,0,1-1.417-.5A1.377,1.377,0,0,1,6,12.966c.019-.859.571-1.275,1.852-1.384a1.466,1.466,0,0,1,1.422-1.4c0-.942-.011-1.876,0-2.81a1.4,1.4,0,0,1,2.8.021c.007.613,0,1.226,0,1.813a4.713,4.713,0,0,1,.721.27,1.317,1.317,0,0,1,.679,1.155c.012.31,0,.622,0,.953H27.521q0-.374,0-.749a1.439,1.439,0,0,1,1.4-1.585c0-.625-.011-1.256,0-1.886a1.4,1.4,0,0,1,2.8.038c.007.819,0,1.637,0,2.456v.313c.929.2,1.293.561,1.419,1.435.158,0,.322,0,.485,0a1.4,1.4,0,0,1,.016,2.8c-.164.006-.328,0-.487,0-.187.925-.55,1.288-1.418,1.42V31.28a2.761,2.761,0,0,1,2.214,2.057,5.032,5.032,0,0,1,.1,1.215c0,.276-.207.436-.516.438-.594.005-1.189,0-1.783,0H27.23c-.5,0-.625-.146-.648-.642A2.839,2.839,0,0,1,28.4,31.435c.163-.061.333-.1.514-.158V21.446Zm15.431-7.018H13.486a5.521,5.521,0,0,1-.011.921,2.416,2.416,0,0,1-.306.859,1.325,1.325,0,0,1-1.065.551V18.6H28.914V16.764l-.117-.021a1.407,1.407,0,0,1-1.276-1.485c0-.271,0-.542,0-.83M13.463,34.043a1.838,1.838,0,0,0-1.676-1.851c-.551-.053-.64-.151-.64-.711V16.812l-.936-.352v.347q0,7.365,0,14.73c0,.488-.119.614-.609.653a1.84,1.84,0,0,0-1.708,1.853Zm19.648,0a1.836,1.836,0,0,0-1.673-1.851c-.554-.054-.641-.15-.641-.71q0-7.35,0-14.7v-.322l-.936.35v.317q0,7.2,0,14.409c0,.489-.119.616-.608.654a1.843,1.843,0,0,0-1.711,1.853Zm-4.2-14.472H12.1v.907H28.909Zm-1.4-7.014H13.5v.9H27.509ZM12.551,13c0-.76,0-1.52,0-2.281a.471.471,0,0,0-.525-.525c-.283-.006-.565-.007-.848,0a.457.457,0,0,0-.494.494q-.008,2.31,0,4.62a.459.459,0,0,0,.494.5c.263.009.526,0,.789,0,.419,0,.583-.165.585-.585,0-.741,0-1.481,0-2.222m15.907,0c0,.76,0,1.52,0,2.281a.472.472,0,0,0,.521.529c.283.006.565.007.848,0a.459.459,0,0,0,.5-.492q.008-2.31,0-4.62a.465.465,0,0,0-.52-.5c-.253-.006-.507,0-.76,0-.423,0-.586.163-.587.581,0,.741,0,1.481,0,2.222M9.734,11.134c-.173,0-.318-.008-.462,0a.45.45,0,0,0-.46.467q-.012,1.4,0,2.8a.451.451,0,0,0,.459.469c.151.01.3,0,.463,0Zm21.541,3.741c.147,0,.272,0,.4,0a.473.473,0,0,0,.526-.523q.008-1.356,0-2.713a.467.467,0,0,0-.513-.505c-.133,0-.265,0-.409,0ZM11.147,9.2c0-.569,0-1.163,0-1.756a.469.469,0,1,0-.933.011c-.005.487,0,.974,0,1.461v.632l.936-.348M30.8,9.549c0-.711,0-1.421,0-2.132a.463.463,0,0,0-.437-.493.445.445,0,0,0-.485.408c-.017.639-.006,1.279-.006,1.866l.93.351M7.862,12.539c-.328.016-.682-.111-.853.248a.578.578,0,0,0,.03.481c.2.306.523.195.824.189Zm25.3.007v.9c.62.071.9-.067.911-.436s-.249-.5-.911-.466" transform="translate(-5.533 -5.519)"/>
    <path id="Path_186972" data-name="Path 186972" d="M99.517,114.039c0,.288,0,.559,0,.83a1.407,1.407,0,0,0,1.276,1.485l.117.021v1.834H84.1V116.37a1.326,1.326,0,0,0,1.065-.551,2.416,2.416,0,0,0,.306-.859,5.522,5.522,0,0,0,.011-.921Z" transform="translate(-77.529 -105.13)" fill="#fff"/>
    <path id="Path_186973" data-name="Path 186973" d="M35.761,157.621H30.192a1.84,1.84,0,0,1,1.708-1.853c.49-.039.609-.165.609-.653q0-7.365,0-14.73v-.347l.936.352v.289q0,7.19,0,14.38c0,.561.088.659.64.711a1.838,1.838,0,0,1,1.676,1.851" transform="translate(-27.831 -129.097)" fill="#fff"/>
    <path id="Path_186974" data-name="Path 186974" d="M287.258,157.619H281.69a1.843,1.843,0,0,1,1.711-1.853c.488-.038.608-.165.608-.654q0-7.2,0-14.409v-.317l.936-.35v.322q0,7.351,0,14.7c0,.56.087.656.641.71a1.836,1.836,0,0,1,1.673,1.851" transform="translate(-259.681 -129.095)" fill="#fff"/>
    <rect id="Rectangle_34521" data-name="Rectangle 34521" width="16.806" height="0.907" transform="translate(6.57 14.052)" fill="#fff"/>
    <rect id="Rectangle_34522" data-name="Rectangle 34522" width="14.009" height="0.9" transform="translate(7.967 7.038)" fill="#fff"/>
    <path id="Path_186975" data-name="Path 186975" d="M67.732,62.648c0,.741,0,1.481,0,2.222,0,.419-.165.581-.585.585-.263,0-.526.007-.789,0a.459.459,0,0,1-.494-.5q-.008-2.31,0-4.62a.457.457,0,0,1,.494-.494c.282-.009.565-.007.848,0a.471.471,0,0,1,.525.525c.005.76,0,1.52,0,2.281" transform="translate(-60.714 -55.162)" fill="url(#linear-gradient)"/>
    <path id="Path_186976" data-name="Path 186976" d="M293.414,62.66c0-.741,0-1.481,0-2.222,0-.418.165-.578.587-.581.253,0,.507,0,.76,0a.465.465,0,0,1,.52.5q.008,2.31,0,4.62a.459.459,0,0,1-.5.492c-.282.008-.565.007-.848,0a.472.472,0,0,1-.521-.529c-.005-.76,0-1.52,0-2.281" transform="translate(-270.49 -55.178)" fill="url(#linear-gradient)"/>
    <path id="Path_186977" data-name="Path 186977" d="M42.821,71.839v3.74c-.16,0-.312.008-.463,0a.451.451,0,0,1-.459-.469q-.012-1.4,0-2.8a.45.45,0,0,1,.46-.467c.144-.01.289,0,.462,0" transform="translate(-38.62 -66.224)" fill="#fff"/>
    <path id="Path_186978" data-name="Path 186978" d="M329.5,75.586V71.843c.143,0,.276,0,.409,0a.467.467,0,0,1,.513.505q.01,1.356,0,2.713a.473.473,0,0,1-.526.523c-.124,0-.249,0-.4,0" transform="translate(-303.761 -66.229)" fill="#fff"/>
    <path id="Path_186979" data-name="Path 186979" d="M60.8,20.265l-.936.348v-.632c0-.487,0-.974,0-1.461a.469.469,0,1,1,.933-.011c.006.593,0,1.186,0,1.756" transform="translate(-55.189 -16.586)" fill="#fff"/>
    <path id="Path_186980" data-name="Path 186980" d="M312.342,20.611l-.93-.351c0-.587-.011-1.227.006-1.866a.445.445,0,0,1,.485-.408.463.463,0,0,1,.437.493c.007.71,0,1.421,0,2.132" transform="translate(-287.08 -16.58)" fill="#fff"/>
    <path id="Path_186981" data-name="Path 186981" d="M19.288,89.754v.918c-.3.006-.627.117-.824-.189a.578.578,0,0,1-.03-.481c.172-.359.525-.232.853-.248" transform="translate(-16.959 -82.733)" fill="#fff"/>
    <path id="Path_186982" data-name="Path 186982" d="M353.6,89.9c.661-.033.918.1.911.466s-.29.507-.911.436Z" transform="translate(-325.975 -82.871)" fill="#fff"/>
  </g>
</svg>
