<svg xmlns="http://www.w3.org/2000/svg" width="27.521" height="17.362" viewBox="0 0 27.521 17.362">
  <g id="visa-4" transform="translate(-2.834 -37.365)">
    <path id="Path_181998" data-name="Path 181998" d="M30.355,39.343a1.771,1.771,0,0,0-2.02-1.978H4.853a1.867,1.867,0,0,0-1.478.541,1.923,1.923,0,0,0-.541,1.436V52.749a1.939,1.939,0,0,0,.541,1.436,2.005,2.005,0,0,0,1.478.541H28.335a1.775,1.775,0,0,0,2.02-1.977Zm-2.02-1.665A1.478,1.478,0,0,1,30,39.343V52.749a1.473,1.473,0,0,1-1.665,1.665H4.853a1.607,1.607,0,0,1-1.707-1.665V39.343a1.487,1.487,0,0,1,1.707-1.665Z" fill="#315881" fill-rule="evenodd"/>
    <path id="Path_181999" data-name="Path 181999" d="M11.559,44.724a1.237,1.237,0,0,0-.885.229,1.5,1.5,0,0,0-.2.9v2.9H35.749v-2.9a.99.99,0,0,0-1.124-1.124Z" transform="translate(-6.519 -6.276)" fill="#315881" fill-rule="evenodd"/>
    <path id="Path_182000" data-name="Path 182000" d="M10.477,123.269c0,.77.364,1.166,1.082,1.166H34.625a1.015,1.015,0,0,0,1.124-1.166v-2.9H10.477Z" transform="translate(-6.519 -70.791)" fill="#dfa43b" fill-rule="evenodd"/>
    <path id="Path_182001" data-name="Path 182001" d="M38.821,76.726a.535.535,0,0,1-.073.312l-1.822,3.175-.115-3.872H33.9l.978.468a.8.8,0,0,1,.427.7l.271,4.112H37l3.414-5.277H38.665A.518.518,0,0,1,38.821,76.726ZM50.6,76.5l.114-.156h-1.78c.062.062.083.094.083.114a2,2,0,0,1-.083.2l-2.592,4.725c-.062.083-.125.156-.2.24h1.468l-.073-.156a2.238,2.238,0,0,1,.229-.739l.312-.583h1.509c.063.489.1.9.125,1.2l-.125.281h1.822l-.271-.4L50.6,76.5Zm-1.083,2.9H48.439l.926-1.78Zm-4.5-3.331a2.4,2.4,0,0,0-1.468.468,1.183,1.183,0,0,0-.7,1.041,1.671,1.671,0,0,0,.5,1.239l1.01.7c.364.26.541.489.541.7a.634.634,0,0,1-.271.51.975.975,0,0,1-.625.2,4.864,4.864,0,0,1-1.853-.739v.968a3.832,3.832,0,0,0,1.967.614,2.278,2.278,0,0,0,1.551-.541,1.366,1.366,0,0,0,.156-2.28l-.968-.7c-.322-.26-.5-.489-.5-.666,0-.406.239-.614.729-.614a3.273,3.273,0,0,1,1.478.583l.2-1.01A3.468,3.468,0,0,0,45.025,76.07Zm-3.872,5.548c-.021-.219-.063-.416-.083-.625l1.322-4.268.312-.385H40.8c.021.094.042.219.063.312a1.623,1.623,0,0,1-.021.312l-1.322,4.226-.271.427h1.9Z" transform="translate(-26.494 -33.011)" fill="#315881" fill-rule="evenodd"/>
  </g>
</svg>
