<svg xmlns="http://www.w3.org/2000/svg" xmlns:xlink="http://www.w3.org/1999/xlink" width="29.996" height="30" viewBox="0 0 29.996 30">
  <defs>
    <linearGradient id="linear-gradient" x1="0.5" x2="0.5" y2="1" gradientUnits="objectBoundingBox">
      <stop offset="0" stop-color="#fec34d"/>
      <stop offset="0.263" stop-color="#f88c83"/>
      <stop offset="1" stop-color="#f048c6"/>
    </linearGradient>
  </defs>
  <g id="Group_103196" data-name="Group 103196" transform="translate(-12.608 -11.873)">
    <g id="Group_103197" data-name="Group 103197" transform="translate(12.608 11.873)">
      <path id="Path_186941" data-name="Path 186941" d="M18.063,34.212a3.575,3.575,0,0,1-1.394-2.25,3.406,3.406,0,0,1,.59-2.606.438.438,0,0,0,.064-.475q-1.233-3.117-2.442-6.244a.352.352,0,0,0-.4-.273,2.822,2.822,0,0,1-.742-.054,1.46,1.46,0,0,1-1.117-1.376c-.012-.322-.012-.646,0-.968a1.467,1.467,0,0,1,1.634-1.424q2.553.332,5.1.719a1.569,1.569,0,0,1-.264,3.108c-.4.006-.79,0-1.221,0,.032.1.053.19.084.271.647,1.656,1.3,3.309,1.939,4.967a.358.358,0,0,0,.375.273c1.414.075,2.826.174,4.239.25a.666.666,0,0,0,.437-.151q3.785-3.406,7.556-6.826a.306.306,0,0,0,.116-.395c-.281-.738-.533-1.487-.811-2.227a.539.539,0,0,0-.257-.268,1.515,1.515,0,0,1-.912-1.671,1.5,1.5,0,0,1,1.522-1.22c1.1,0,2.207,0,3.311,0a1.513,1.513,0,0,0,1.64-1.63A3.381,3.381,0,0,1,37.161,13a1.49,1.49,0,0,1,2.926.2,4.561,4.561,0,0,1-2.172,4.527,4.434,4.434,0,0,1-2.564.647c-.163-.005-.326,0-.52,0,.04.136.065.235.1.33q1.157,3.246,2.313,6.492a.53.53,0,0,0,.416.389,5.986,5.986,0,0,1,3.326,9.252.576.576,0,0,0-.078.618c.294.778.557,1.567.848,2.346a1.024,1.024,0,0,0,.278.391,1.541,1.541,0,0,1,.566,1.17c.007.344.009.687,0,1.031a1.5,1.5,0,0,1-1.479,1.473c-.281.007-.562,0-.843,0a1.536,1.536,0,0,1-1.689-1.484H16.63a1.455,1.455,0,0,1-1.21,1.431,5.475,5.475,0,0,1-1.613,0,1.425,1.425,0,0,1-1.192-1.436q-.011-.515,0-1.031A1.51,1.51,0,0,1,13.778,37.9a1.215,1.215,0,0,0,.479-.253c1.264-1.131,2.519-2.273,3.806-3.438M38.38,36.935c-.076.022-.135.037-.192.057a5.964,5.964,0,0,1-7.264-2.613.322.322,0,0,0-.353-.167q-3.3.212-6.6.411c-.474.029-.947.065-1.466.1l.427.795c.156-.081.281-.151.411-.213a.5.5,0,0,1,.705.174.485.485,0,0,1-.216.69q-.856.482-1.727.936a.5.5,0,1,1-.479-.869c.137-.086.279-.165.425-.25l-.51-.93-4.667,4.291H38.532c.116-.291.226-.555.327-.824a.322.322,0,0,0,.014-.2c-.158-.461-.324-.918-.492-1.39m-1.515-4.24c-.315-.885-.619-1.714-.9-2.549a.4.4,0,0,0-.418-.317c-1.257-.067-2.514-.146-3.771-.225q-5.718-.36-11.435-.722A2.4,2.4,0,0,0,17.9,30.228a2.344,2.344,0,0,0,.267,2.693,2.563,2.563,0,0,0,2.686.874c-.117-.221-.233-.417-.327-.624a.464.464,0,0,0-.49-.316,1.448,1.448,0,0,1-1.363-1.09A1.493,1.493,0,0,1,21.034,30.2a1.339,1.339,0,0,1,.457,1.67,1.023,1.023,0,0,0,.12,1.224.875.875,0,0,1,.1.192c.122.418.4.476.8.448,2.575-.18,5.151-.331,7.727-.493,1.994-.125,3.989-.247,5.982-.38a3.742,3.742,0,0,0,.638-.162M40.7,37.875c-.046-.152-.075-.262-.113-.368Q38.264,31,35.939,24.5c-.7-1.957-1.394-3.916-2.1-5.872-.035-.1-.133-.235-.215-.245a6.424,6.424,0,0,0-.8-.012c.042.14.068.239.1.335q2.254,6.313,4.509,12.626,1.117,3.127,2.237,6.253c.039.109.136.263.224.276a5.585,5.585,0,0,0,.8.013m-8.71-3.727a4.883,4.883,0,0,0,6.039,1.8l-.813-2.269c-1.739.37-3.487.259-5.226.473m5.793-7.461,2.583,7.232a4.946,4.946,0,0,0-2.583-7.232M34,17.372v0c.583,0,1.166.02,1.748,0a3.535,3.535,0,0,0,3.343-4.043.467.467,0,0,0-.481-.444.489.489,0,0,0-.505.453,1.552,1.552,0,0,0,0,.281,2.567,2.567,0,0,1-2.778,2.77c-1.028-.048-2.06-.01-3.09-.008-.4,0-.623.182-.627.494s.225.5.616.5c.593,0,1.186,0,1.779,0m-17.393,4c.81,0,1.621,0,2.431,0a.506.506,0,0,0,.568-.49.524.524,0,0,0-.481-.638c-.338-.056-.678-.1-1.017-.15-1.274-.181-2.548-.366-3.823-.54-.473-.065-.671.124-.675.608,0,.2,0,.395,0,.592,0,.445.178.617.628.619.79,0,1.579,0,2.369,0m12.163,7.038c.659.041,1.219.065,1.778.115a.354.354,0,0,0,.394-.2,5.944,5.944,0,0,1,3.127-2.594c.084-.031.166-.069.267-.112l-.625-1.746-4.941,4.54m-2.581-.2A1.535,1.535,0,0,0,28,27.764a3,3,0,0,1,.41-.383q2.368-2.176,4.734-4.355c.075-.069.174-.191.157-.263a7.057,7.057,0,0,0-.262-.757l-6.852,6.2M15.851,22.389l2.358,6.021.777-.378-1.927-4.92c-.309-.79-.309-.79-1.208-.723M20.227,34.9c-.353-.053-.655-.079-.946-.15a.449.449,0,0,0-.47.122c-1.027.943-2.064,1.875-3.1,2.808a1.561,1.561,0,0,1-.225.147l.883.618L20.227,34.9m15.26-6.077-.807-2.254a5.118,5.118,0,0,0-2.743,2.032l3.55.222M13.613,39.84c0,1,.028,1.025,1.037,1.025.911,0,.963-.053.963-.975,0-1-.027-1.025-1.037-1.025-.912,0-.962.051-.962.974m27.988.038c0-.98-.033-1.013-1.018-1.013-.938,0-.982.044-.982.986,0,.983.031,1.014,1.017,1.014.937,0,.982-.046.982-.987M20.1,30.869a.5.5,0,1,0,.5.485.5.5,0,0,0-.5-.485" transform="translate(-12.608 -11.873)"/>
      <path id="Path_186943" data-name="Path 186943" d="M91.608,219.426a3.743,3.743,0,0,1-.638.162c-1.994.134-3.988.255-5.982.38-2.576.161-5.152.312-7.727.493-.406.028-.682-.03-.8-.448a.874.874,0,0,0-.1-.192,1.023,1.023,0,0,1-.12-1.224,1.339,1.339,0,0,0-.457-1.67,1.493,1.493,0,0,0-2.364,1.569,1.448,1.448,0,0,0,1.363,1.09.464.464,0,0,1,.49.316c.094.206.21.4.327.623a2.562,2.562,0,0,1-2.686-.874,2.344,2.344,0,0,1-.267-2.693,2.4,2.4,0,0,1,2.442-1.347q5.718.355,11.436.722c1.257.079,2.514.158,3.771.225a.4.4,0,0,1,.418.317c.282.836.586,1.664.9,2.549" transform="translate(-67.351 -198.604)" fill="url(#linear-gradient)"/>
      <path id="Path_186944" data-name="Path 186944" d="M262.812,109.187a5.585,5.585,0,0,1-.8-.013c-.088-.013-.185-.167-.224-.276q-1.126-3.124-2.237-6.253-2.255-6.313-4.509-12.626c-.034-.1-.06-.195-.1-.335a6.424,6.424,0,0,1,.8.012c.082.011.18.147.215.245.7,1.956,1.4,3.915,2.1,5.872q2.323,6.5,4.648,13.006c.038.106.066.215.113.368" transform="translate(-234.72 -83.185)" fill="#fff"/>
      <path id="Path_186945" data-name="Path 186945" d="M244.869,273.612c1.74-.214,3.487-.1,5.226-.473l.812,2.269a4.883,4.883,0,0,1-6.039-1.8" transform="translate(-225.487 -251.337)" fill="#fff"/>
      <path id="Path_186946" data-name="Path 186946" d="M314.285,189.4a4.946,4.946,0,0,1,2.583,7.232l-2.583-7.232" transform="translate(-289.111 -174.588)" fill="#fff"/>
      <path id="Path_186947" data-name="Path 186947" d="M242.683,28.391c-.593,0-1.186,0-1.779,0-.391,0-.62-.192-.616-.505s.23-.493.627-.494c1.03,0,2.062-.04,3.09.008a2.567,2.567,0,0,0,2.778-2.77,1.544,1.544,0,0,1,0-.281.489.489,0,0,1,.505-.453.467.467,0,0,1,.482.444,3.535,3.535,0,0,1-3.343,4.043c-.582.024-1.165,0-1.748,0Z" transform="translate(-221.288 -22.892)" fill="#fff"/>
      <path id="Path_186948" data-name="Path 186948" d="M27.632,105.564c-.79,0-1.579,0-2.369,0-.45,0-.623-.174-.628-.619,0-.2,0-.395,0-.592,0-.484.2-.673.675-.608,1.275.174,2.549.359,3.823.54.339.048.679.094,1.017.15a.524.524,0,0,1,.481.638.507.507,0,0,1-.568.491c-.81,0-1.621,0-2.431,0" transform="translate(-23.63 -96.066)" fill="#fff"/>
      <path id="Path_186949" data-name="Path 186949" d="M206.32,160.155l4.941-4.54.625,1.746c-.1.043-.182.081-.267.112a5.944,5.944,0,0,0-3.127,2.594.354.354,0,0,1-.394.2c-.558-.05-1.119-.074-1.778-.115" transform="translate(-190.155 -143.62)" fill="#fff"/>
      <path id="Path_186950" data-name="Path 186950" d="M175.389,139.492l6.852-6.2a7.023,7.023,0,0,1,.262.757c.017.073-.083.195-.157.263q-2.363,2.182-4.734,4.355a3.005,3.005,0,0,0-.41.383,1.535,1.535,0,0,1-1.813.441" transform="translate(-161.805 -123.161)" fill="#fff"/>
      <path id="Path_186951" data-name="Path 186951" d="M51.47,137.59c.9-.067.9-.067,1.208.723l1.927,4.92-.777.378L51.47,137.59" transform="translate(-48.227 -127.075)" fill="#fff"/>
      <path id="Path_186952" data-name="Path 186952" d="M51.836,286l-3.858,3.546-.883-.618a1.563,1.563,0,0,0,.225-.147c1.036-.933,2.073-1.866,3.1-2.808a.449.449,0,0,1,.47-.122c.291.071.593.1.946.15" transform="translate(-44.218 -262.971)" fill="#fff"/>
      <path id="Path_186953" data-name="Path 186953" d="M247.779,190.3l-3.55-.222a5.118,5.118,0,0,1,2.743-2.032l.807,2.254" transform="translate(-224.901 -173.344)" fill="#fff"/>
      <path id="Path_186954" data-name="Path 186954" d="M24.645,336.315c0-.923.05-.974.962-.974,1.01,0,1.037.027,1.037,1.025,0,.922-.052.975-.963.975-1.008,0-1.037-.028-1.037-1.025" transform="translate(-23.641 -308.348)" fill="#fff"/>
      <path id="Path_186955" data-name="Path 186955" d="M338.084,336.354c0,.941-.045.987-.982.987-.986,0-1.017-.031-1.017-1.014,0-.942.044-.986.982-.986.985,0,1.018.033,1.018,1.013" transform="translate(-309.092 -308.348)" fill="#fff"/>
      <path id="Path_186956" data-name="Path 186956" d="M97.031,239.514a.5.5,0,1,1-.493.5.5.5,0,0,1,.493-.5" transform="translate(-89.534 -220.518)" fill="#fff"/>
    </g>
  </g>
</svg>
